<?xml version="1.0" encoding="UTF-8"?>
<svg version="1.1" xmlns="http://www.w3.org/2000/svg" width="651" height="651">
<path d="M0 0 C214.83 0 429.66 0 651 0 C651 214.83 651 429.66 651 651 C436.17 651 221.34 651 0 651 C0 436.17 0 221.34 0 0 Z " fill="#1C253D" transform="translate(0,0)"/>
<path d="M0 0 C14.53210686 10.67110651 24.67728926 25.11921081 27.92578125 43.1484375 C29.52327349 62.50274282 26.21551781 78.71994031 15.42578125 94.9609375 C13.64836175 98.73795394 13.72087077 101.06705011 14.17578125 105.1328125 C15.18705272 107.85060457 16.48285048 108.62676496 18.92578125 110.1484375 C21.15726745 110.59021648 21.15726745 110.59021648 23.56695557 110.52024841 C24.49486404 110.52700592 25.42277252 110.53376343 26.37879944 110.54072571 C27.89527321 110.5291468 27.89527321 110.5291468 29.44238281 110.51733398 C31.04795296 110.5229837 31.04795296 110.5229837 32.68595886 110.52874756 C35.01093927 110.53518455 37.33594599 110.53484579 39.66092682 110.52856255 C43.34336449 110.51946465 47.02529161 110.52966279 50.70770264 110.54518127 C61.17768538 110.58531151 71.64762895 110.58648579 82.11767578 110.58422852 C88.52200524 110.58417737 94.92606037 110.60337225 101.33031464 110.63356209 C104.95315826 110.64437972 108.5754765 110.63225903 112.19830322 110.61973572 C114.42940792 110.6286427 116.66050836 110.63871797 118.89160156 110.65014648 C119.89448715 110.64040298 120.89737274 110.63065948 121.9306488 110.62062073 C129.08274455 110.69355395 134.5092031 112.14079342 139.94921875 116.9296875 C140.39523437 117.496875 140.84125 118.0640625 141.30078125 118.6484375 C141.76226562 119.215625 142.22375 119.7828125 142.69921875 120.3671875 C145.99445958 125.15263278 146.20279261 129.11690221 146.15283203 134.86425781 C146.15312408 135.74266327 146.15341614 136.62106873 146.15371704 137.52609253 C146.15232492 140.42635005 146.13676919 143.32634992 146.12109375 146.2265625 C146.1173632 148.23866638 146.11451643 150.25077207 146.11251831 152.26287842 C146.10488515 157.55652896 146.08523932 162.85006961 146.06311035 168.14367676 C146.04264514 173.54629022 146.03351514 178.94892145 146.0234375 184.3515625 C146.00199318 194.95056909 145.967861 205.54949416 145.92578125 216.1484375 C144.72441686 216.15082585 143.52305246 216.15321421 142.28528309 216.15567493 C113.77362195 216.21302258 85.26202752 216.28574443 56.75045665 216.37742378 C53.24192263 216.38869208 49.73338821 216.39983051 46.22485352 216.41088867 C45.17711506 216.4141942 45.17711506 216.4141942 44.10821017 216.4175665 C32.79517829 216.45294838 21.48214647 216.47780748 10.16907976 216.49878452 C-1.43734704 216.5205395 -13.04369833 216.55380998 -24.65006477 216.59713906 C-31.16996287 216.6211133 -37.68978132 216.63981455 -44.20972252 216.64605141 C-50.34348897 216.65208322 -56.47705149 216.67201418 -62.61074257 216.70271301 C-64.86459565 216.7115238 -67.11847535 216.71520957 -69.37234497 216.71344566 C-72.4449346 216.71179992 -75.5168974 216.72843283 -78.58940125 216.74971008 C-79.48531894 216.74486251 -80.38123663 216.74001493 -81.30430335 216.73502046 C-86.14112302 216.79045769 -89.03781492 217.21859797 -93.07421875 220.1484375 C-93.73421875 220.1484375 -94.39421875 220.1484375 -95.07421875 220.1484375 C-95.34234375 220.6846875 -95.61046875 221.2209375 -95.88671875 221.7734375 C-97.07421875 224.1484375 -97.07421875 224.1484375 -98.6231842 226.63687134 C-100.5944495 231.40741835 -100.50163547 235.59578163 -100.47827148 240.70849609 C-100.48513474 241.7596611 -100.49199799 242.81082611 -100.49906921 243.8938446 C-100.51733992 247.36165961 -100.51349883 250.82902228 -100.5078125 254.296875 C-100.51237446 256.71294298 -100.51768008 259.12900967 -100.5236969 261.54507446 C-100.5326288 266.60725172 -100.5302042 271.66927123 -100.52026367 276.73144531 C-100.50877978 283.21008719 -100.52897687 289.68818355 -100.55818081 296.16675377 C-100.57655166 301.15627487 -100.57624842 306.1456655 -100.57054329 311.13521194 C-100.57039015 313.52336008 -100.576428 315.91151711 -100.58883476 318.29963303 C-100.6037573 321.64329707 -100.59305689 324.98595664 -100.57592773 328.32958984 C-100.5855957 329.31063187 -100.59526367 330.29167389 -100.60522461 331.30244446 C-100.52921006 338.40962956 -98.93685903 343.61784782 -94.43359375 349.171875 C-93.9025 349.61789062 -93.37140625 350.06390625 -92.82421875 350.5234375 C-92.3034375 350.98492187 -91.78265625 351.44640625 -91.24609375 351.921875 C-85.26473669 355.29983564 -78.63567482 355.41838124 -71.94921875 355.5859375 C-50.03086644 356.48065107 -31.78689103 363.75480425 -16.07421875 379.1484375 C-15.13255859 380.03595703 -15.13255859 380.03595703 -14.171875 380.94140625 C-10.05874913 385.16645391 -7.40906614 389.93224035 -4.76171875 395.1484375 C-4.42382324 395.81302979 -4.08592773 396.47762207 -3.73779297 397.16235352 C2.69384178 410.40826458 3.54980497 427.49953557 -1.19921875 441.4609375 C-3.46438126 447.26102968 -6.21412 452.27357053 -10.07421875 457.1484375 C-10.5125 457.75945312 -10.95078125 458.37046875 -11.40234375 459 C-17.39756284 466.82134904 -27.5975224 473.0277894 -37.31956482 474.70997238 C-41.05079909 475.14570257 -44.64317468 475.27996258 -48.39868164 475.28887939 C-49.45380117 475.29333608 -49.45380117 475.29333608 -50.53023624 475.2978828 C-52.86912817 475.30650117 -55.2079685 475.30807214 -57.546875 475.30957031 C-59.23111071 475.31420315 -60.91534539 475.31922843 -62.59957886 475.32461548 C-67.16147195 475.33769177 -71.72335036 475.34417443 -76.28525925 475.34862614 C-79.13720648 475.351563 -81.98914974 475.35566884 -84.84109497 475.36013031 C-93.77009658 475.37378917 -102.69908907 475.38346518 -111.6281004 475.3873322 C-121.92557021 475.391817 -132.22290757 475.40939122 -142.5203371 475.4383328 C-150.48910194 475.45995071 -158.4578295 475.47003645 -166.42662334 475.47137332 C-171.18258963 475.47242074 -175.93843111 475.47831602 -180.69436646 475.49619293 C-185.16613411 475.51267675 -189.63768314 475.51482763 -194.10947037 475.50605392 C-195.74812531 475.50528387 -197.38679205 475.50962213 -199.02541733 475.51951218 C-201.2671227 475.53224646 -203.50805525 475.52634761 -205.74975586 475.51593018 C-207.00259872 475.51739674 -208.25544159 475.5188633 -209.54624939 475.5203743 C-215.56580742 474.88576132 -220.81334321 472.52144135 -225.07421875 468.1484375 C-229.87409331 460.81210872 -230.80010929 454.42794498 -230.72119141 445.80151367 C-230.729953 444.60839569 -230.7387146 443.41527771 -230.7477417 442.18600464 C-230.76585649 438.9442775 -230.76178638 435.70358732 -230.74584627 432.46187758 C-230.73309758 429.05694684 -230.74495071 425.65208034 -230.7527771 422.24714661 C-230.76184165 416.5371169 -230.74996397 410.82741193 -230.72607422 405.11743164 C-230.69880327 398.52328297 -230.70773228 391.92990592 -230.73520625 385.33577555 C-230.75791029 379.65819335 -230.7610932 373.98084304 -230.7480129 368.30323011 C-230.74023367 364.91886919 -230.73913534 361.53487103 -230.75569534 358.15053368 C-230.76837625 354.38261798 -230.74906476 350.61619311 -230.72119141 346.84838867 C-230.73131256 345.73193466 -230.74143372 344.61548065 -230.75186157 343.4651947 C-230.64867634 335.94638164 -230.64867634 335.94638164 -227.75131226 331.92182922 C-225.07421875 330.1484375 -225.07421875 330.1484375 -221.59375 330.07421875 C-217.7181223 331.25712399 -215.74836671 332.63027918 -212.76171875 335.3359375 C-200.38583399 345.95589864 -188.44368104 350.44515084 -172.08642578 349.36425781 C-155.665259 347.60299702 -142.54368031 339.28519785 -132.26171875 326.7109375 C-122.35277417 313.31984023 -119.20791647 297.50362811 -121.5 281.1015625 C-124.55191817 266.9466537 -132.37064475 254.38264948 -144.44921875 246.3359375 C-149.47042197 243.33986044 -154.52076392 240.97209676 -160.07421875 239.1484375 C-161.06035156 238.81005859 -161.06035156 238.81005859 -162.06640625 238.46484375 C-174.52304688 234.95081089 -188.75965035 235.94417831 -200.07421875 242.1484375 C-203.30307422 244.25922656 -206.19590452 246.5851086 -209.07421875 249.1484375 C-209.81929687 249.798125 -210.564375 250.4478125 -211.33203125 251.1171875 C-212.71160935 252.32370025 -214.08373717 253.53883187 -215.4453125 254.765625 C-217.92112938 256.86739761 -219.12496757 257.15407626 -222.44921875 257.5234375 C-226.07421875 257.1484375 -226.07421875 257.1484375 -228.26843262 255.3697052 C-231.02893963 250.44535015 -230.63131623 245.78894141 -230.59179688 240.2331543 C-230.59880615 239.02607819 -230.60581543 237.81900208 -230.61303711 236.5753479 C-230.62761301 233.2711398 -230.624214 229.96793538 -230.61152077 226.66378379 C-230.6013714 223.19884151 -230.61079244 219.73394121 -230.61706543 216.26899719 C-230.62433917 210.44756403 -230.61476456 204.62633395 -230.59570312 198.80493164 C-230.57396534 192.08891621 -230.58096392 185.37338713 -230.60300875 178.65738362 C-230.62120743 172.88051802 -230.62369845 167.10379821 -230.61325407 161.32691318 C-230.60703959 157.8815085 -230.60612597 154.43633174 -230.61940002 150.990942 C-230.63318436 147.1444066 -230.61403599 143.29840779 -230.59179688 139.4519043 C-230.5998938 138.31967941 -230.60799072 137.18745453 -230.61633301 136.0209198 C-230.53536297 128.44357052 -229.45249603 122.98604195 -224.29296875 117.125 C-223.72578125 116.67898437 -223.15859375 116.23296875 -222.57421875 115.7734375 C-221.7234375 115.08121094 -221.7234375 115.08121094 -220.85546875 114.375 C-217.18470736 111.84732659 -214.5203693 110.89858765 -210.03321838 110.8968811 C-209.01683289 110.89149826 -208.00044739 110.88611542 -206.95326233 110.88056946 C-205.8440593 110.88469345 -204.73485626 110.88881744 -203.59204102 110.89306641 C-202.41930634 110.88944595 -201.24657166 110.8858255 -200.03829956 110.88209534 C-196.82545642 110.87339861 -193.61273015 110.87318587 -190.39988065 110.8754468 C-187.03493714 110.87469854 -183.6700679 110.85963256 -180.30516052 110.84506226 C-168.84628924 110.79806268 -157.3874302 110.77409367 -145.9284668 110.76757812 C-139.59720595 110.76382625 -133.26614334 110.74578813 -126.93496746 110.71248376 C-123.5863092 110.6955888 -120.2380115 110.68644668 -116.88931465 110.69542313 C-113.15450146 110.70247216 -109.42052509 110.68525463 -105.68579102 110.66259766 C-104.57861221 110.67077011 -103.47143341 110.67894257 -102.33070374 110.68736267 C-96.31310707 110.6390356 -96.31310707 110.6390356 -90.88835144 108.24659729 C-88.25787103 105.20427946 -88.40983723 103.37221402 -88.63476562 99.49853516 C-89.36566685 95.58983784 -91.19112615 92.64248061 -93.32421875 89.3359375 C-102.35069133 74.4003642 -105.31857197 58.53343564 -102.42578125 41.28125 C-97.56827771 22.97219821 -87.15520316 7.42558588 -71.07421875 -2.8515625 C-48.00746802 -14.52829055 -21.78416281 -14.5951178 0 0 Z " fill="#FE8B00" transform="translate(245.07421875,25.8515625)"/>
<path d="M0 0 C0.91343025 -0.00644889 1.82686049 -0.01289778 2.76797044 -0.0195421 C3.76776386 -0.01644489 4.76755728 -0.01334769 5.79764748 -0.01015663 C6.86263895 -0.01468774 7.92763042 -0.01921886 9.02489436 -0.02388728 C12.60540857 -0.03658129 16.18577165 -0.03490767 19.76630592 -0.03325844 C22.3285587 -0.03924054 24.89080966 -0.04604534 27.45305824 -0.05361366 C33.69766894 -0.06947306 39.94222397 -0.07572343 46.18685292 -0.07683842 C51.2625129 -0.07778863 56.33816041 -0.08189756 61.41381645 -0.08823967 C75.80289112 -0.10585325 90.19193595 -0.11507833 104.58102147 -0.11357872 C105.35678936 -0.11349881 106.13255726 -0.1134189 106.93183327 -0.11333656 C108.09690515 -0.11321392 108.09690515 -0.11321392 109.28551383 -0.1130888 C121.87481782 -0.1122758 134.46400219 -0.13141655 147.05327158 -0.1596133 C159.97851756 -0.18833422 172.90370519 -0.20215404 185.8289839 -0.20042574 C193.08610054 -0.19976158 200.34309177 -0.20526536 207.60017967 -0.22678185 C214.42427526 -0.24688483 221.24806181 -0.24632809 228.07218552 -0.23174858 C230.57881176 -0.22965226 233.08545435 -0.23441005 235.59205246 -0.2464695 C239.01010107 -0.26185075 242.42722688 -0.25265999 245.8452549 -0.23720741 C247.33825286 -0.2526381 247.33825286 -0.2526381 248.86141241 -0.26838052 C254.55936448 -0.21133194 257.99490475 0.3429777 262.44843483 4.25726891 C265.43984948 7.34185847 265.8254167 9.47602763 265.83611488 13.72260094 C265.85097183 15.38818047 265.85097183 15.38818047 265.86612892 17.08740807 C265.86162727 18.30104027 265.85712563 19.51467247 265.85248756 20.76508141 C265.86278244 22.68752678 265.86278244 22.68752678 265.87328529 24.64880943 C265.89122814 28.16119835 265.89004647 31.67333761 265.88434291 35.18575859 C265.88125308 38.11828792 265.8873411 41.05076914 265.89338166 43.98329163 C265.90742855 50.90082995 265.90586388 57.81824477 265.89447975 64.73578453 C265.88299408 71.87274987 265.89708105 79.00933964 265.92387623 86.14625549 C265.94602349 92.27461266 265.95267296 98.40285184 265.94679981 104.53124619 C265.94342716 108.19117159 265.94586561 111.85085615 265.96305084 115.51074791 C265.98137195 119.59055998 265.96734315 123.66963956 265.95014381 127.74945641 C265.95981178 128.96308861 265.96947975 130.17672081 265.97944069 131.42712975 C265.96960655 132.5375161 265.95977242 133.64790245 265.94964027 134.79193687 C265.94943099 135.75646782 265.94922171 136.72099876 265.94900608 137.71475792 C265.30232313 140.99940224 264.01253718 142.17469401 261.44843483 144.25726891 C259.10859108 145.20648766 259.10859108 145.20648766 256.51093483 145.94476891 C243.29373331 150.46830311 232.61079537 159.93525825 226.07343483 172.19476891 C219.97244998 185.30857057 219.87643458 199.51234508 224.41327858 213.15961266 C227.32216909 220.76974034 231.35022214 226.93701273 236.44843483 233.25726891 C237.0542942 234.02812828 237.66015358 234.79898766 238.28437233 235.59320641 C249.92182563 249.58761228 266.38301344 259.60186962 284.44843483 262.25726891 C286.75903099 262.44852631 289.0717698 262.61558533 291.38593483 262.75726891 C297.61630135 263.14760512 301.46861349 264.06341283 305.76093483 268.81976891 C308.16537149 272.29284409 308.58060998 274.06955682 308.62543678 278.25433922 C308.63827202 279.29592186 308.65110725 280.3375045 308.66433144 281.41065025 C308.67541183 283.10589836 308.67541183 283.10589836 308.68671608 284.83539391 C308.69478783 285.99472435 308.70285957 287.15405479 308.71117592 288.34851646 C308.72502618 290.80652936 308.7357441 293.26456157 308.74360085 295.72260094 C308.76080086 299.47801877 308.80467874 303.23255359 308.84882545 306.98773766 C308.85895324 309.37444992 308.86746908 311.76116969 308.87421608 314.14789391 C308.89172417 315.26996239 308.90923225 316.39203087 308.92727089 317.54810143 C308.91053148 323.57993517 308.78319918 327.64796485 304.44843483 332.25726891 C300.30217367 335.34631364 297.19312222 335.64420369 292.07538795 335.67719078 C291.35117149 335.68566032 290.62695503 335.69412987 289.88079262 335.70285606 C287.49690937 335.72617503 285.11367329 335.72724964 282.72968483 335.72601891 C281.06728801 335.7331226 279.40489364 335.7408219 277.74250221 335.74909019 C274.26241166 335.76252251 270.78254793 335.764109 267.30243874 335.75824547 C262.84665575 335.75234444 258.39196052 335.78296236 253.93638802 335.82336235 C250.50479219 335.84923022 247.07345883 335.85211775 243.64177895 335.84847069 C241.99914245 335.8501622 240.35649387 335.8598078 238.71395302 335.87761497 C236.41572412 335.89979325 234.11970409 335.89011247 231.8214817 335.87250328 C230.51529884 335.87455772 229.20911598 335.87661217 227.86335182 335.87872887 C223.58733164 335.10056198 222.14318472 333.59022033 219.44843483 330.25726891 C218.29609108 327.86273766 218.29609108 327.86273766 217.51093483 325.44476891 C213.31348266 314.30664779 206.10581238 309.03350989 195.59687233 303.85101891 C187.7987398 300.40386598 179.72824095 298.22304344 171.44843483 296.25726891 C170.5589817 296.02910484 169.66952858 295.80094078 168.75312233 295.56586266 C144.92760896 290.22566138 117.99639202 296.04447595 97.60468483 308.92523766 C95.44843483 310.25726891 95.44843483 310.25726891 93.29218483 311.18305016 C90.94012101 312.55342632 90.58377041 313.80909045 89.44843483 316.25726891 C87.98595237 319.14104714 86.50108614 322.01270451 85.01093483 324.88226891 C84.61583717 325.65828453 84.22073952 326.43430016 83.8136692 327.23383141 C83.42630592 327.97633141 83.03894264 328.71883141 82.63984108 329.48383141 C82.29123024 330.16010582 81.9426194 330.83638023 81.5834446 331.53314781 C80.44843483 333.25726891 80.44843483 333.25726891 77.44843483 335.25726891 C74.280756 335.52469444 74.280756 335.52469444 70.31830788 335.54779625 C69.59598976 335.55451347 68.87367165 335.5612307 68.1294651 335.56815147 C65.73962474 335.58716108 63.35006487 335.5910574 60.96015358 335.59320641 C59.29729535 335.59963329 57.63443826 335.60636157 55.97158241 335.61337852 C52.48377805 335.6253594 48.99607278 335.62905862 45.50824928 335.62787437 C41.045951 335.62767137 36.58429092 335.65495053 32.12214375 335.68941879 C28.68624409 335.71169518 25.2504977 335.71571166 21.81453323 335.71465492 C20.16993769 335.71701065 18.52533791 335.72583268 16.8808136 335.74131966 C14.57567494 335.76099142 12.27190773 335.75513774 9.96674538 335.74310875 C8.65675072 335.74595879 7.34675606 335.74880882 5.99706459 335.75174522 C0.70394448 335.01418658 -2.32653212 332.57914604 -5.89555931 328.72797203 C-8.28660089 323.71676061 -8.10548082 319.21160955 -8.04765892 313.72601891 C-8.04911415 312.61674034 -8.05056938 311.50746178 -8.05206871 310.36456871 C-8.05041234 308.02457611 -8.03888054 305.68457232 -8.0181179 303.34467125 C-7.98916416 299.76949191 -7.99751556 296.19579636 -8.01054955 292.62055016 C-8.00431168 290.34319922 -7.99592037 288.06585296 -7.98515892 285.78851891 C-7.98809456 284.7227462 -7.9910302 283.6569735 -7.99405479 282.55890465 C-7.91373806 276.21901596 -7.45632906 271.5417563 -3.08550072 266.59955406 C2.01529275 262.80716009 6.41069505 262.59476409 12.63593483 262.63226891 C20.63433529 262.45219623 27.83856021 261.94559735 35.44843483 259.25726891 C36.55058327 258.86797203 37.6527317 258.47867516 38.78827858 258.07758141 C58.77937472 250.25785982 75.28583119 234.96065382 84.38593483 215.44476891 C85.10002433 213.72641219 85.78945808 211.99750546 86.44843483 210.25726891 C86.75394264 209.45418297 87.05945045 208.65109703 87.37421608 207.82367516 C92.83569096 192.47460121 93.16592088 171.66847038 87.05780983 156.56976891 C75.31266702 132.39530021 57.99036705 115.35363565 32.44843483 106.25726891 C22.13370338 103.01687908 12.09700102 101.10874045 1.2824192 100.82758141 C-3.12338984 100.62674681 -6.08648273 100.04205076 -9.55156517 97.25726891 C-12.18464884 93.505221 -11.84016674 89.3888141 -11.82622337 84.9879818 C-11.83388977 83.74094223 -11.83388977 83.74094223 -11.84171104 82.46870995 C-11.85560348 79.72237498 -11.85465057 76.97629107 -11.85234642 74.22992516 C-11.85623349 72.31947804 -11.86056818 70.40903179 -11.86533165 68.49858665 C-11.87279307 64.49469768 -11.8725031 60.49089689 -11.867239 56.48700523 C-11.86144393 51.35776323 -11.87837666 46.22888228 -11.90158367 41.09969997 C-11.91631992 37.15429641 -11.91719287 33.20897983 -11.91407394 29.26355362 C-11.91458719 27.37253097 -11.9198256 25.48150346 -11.92988586 23.59050751 C-11.94223106 20.94541692 -11.93547026 18.30102998 -11.92387962 15.65595055 C-11.93152336 14.87604759 -11.9391671 14.09614464 -11.94704247 13.29260826 C-11.90337632 8.7810771 -11.44969531 5.78203008 -8.55156517 2.25726891 C-5.61532692 0.46153781 -3.41872206 0.00611161 0 0 Z " fill="#FD8A00" transform="translate(174.5515651702881,261.74273109436035)"/>
<path d="M0 0 C45.26926366 -0.1209091 45.26926366 -0.1209091 64.19335938 -0.14648438 C77.27632156 -0.16430717 90.35922592 -0.18529495 103.44213867 -0.22631836 C112.96901608 -0.25617711 122.49584673 -0.27556462 132.02276963 -0.28226548 C137.06935456 -0.28618373 142.11580567 -0.29542165 147.16234779 -0.31719017 C151.90895378 -0.33749969 156.65537037 -0.34384505 161.40201569 -0.33932304 C163.14716558 -0.34015073 164.89232159 -0.34614926 166.63743401 -0.35761642 C169.0144501 -0.37247421 171.39074479 -0.36897859 173.76777649 -0.36076355 C174.46329961 -0.36950207 175.15882272 -0.3782406 175.8754223 -0.38724393 C178.68542226 -0.36087254 180.56894 -0.29511125 182.92296124 1.31649303 C184.80780759 4.26267479 184.42588623 6.60722564 184 10 C182.59154465 12.36408789 181.31839061 14.19019909 179.5625 16.25 C179.11237549 16.80429687 178.66225098 17.35859375 178.19848633 17.9296875 C177.26815613 19.07170081 176.330519 20.20779971 175.38574219 21.33789062 C174.07329698 22.91208495 172.78961738 24.51013254 171.5078125 26.109375 C167.86103845 30.65249418 164.17343849 34.92953459 160 39 C159.19695435 39.78697266 159.19695435 39.78697266 158.37768555 40.58984375 C148.48329568 50.22877995 138.15193684 58.86106058 127 67 C126.31856934 67.5062793 125.63713867 68.01255859 124.93505859 68.53417969 C109.3837076 80.07813845 92.60105283 89.68019476 75.11572266 97.98730469 C73.65705768 98.68549789 72.20386855 99.39520817 70.75537109 100.11425781 C58.2859155 106.29886102 45.5049892 111.06897996 32.3125 115.4375 C31.53596069 115.69470825 30.75942139 115.9519165 29.95935059 116.21691895 C6.34280212 124 6.34280212 124 0 124 C0 83.08 0 42.16 0 0 Z " fill="#FD8B00" transform="translate(459,276)"/>
<path d="M0 0 C-1.04494564 3.25094199 -2.59135491 4.56873286 -5.4375 6.25 C-9 8 -9 8 -12 8 C-10.37982158 6.66081194 -8.75370657 5.3288031 -7.125 4 C-6.22007812 3.2575 -5.31515625 2.515 -4.3828125 1.75 C-2 0 -2 0 0 0 Z " fill="#EC8F08" transform="translate(176,23)"/>
<path d="M0 0 C0.66 0.33 1.32 0.66 2 1 C0.02 3.31 -1.96 5.62 -4 8 C-4.66 7.67 -5.32 7.34 -6 7 C-4.02 4.69 -2.04 2.38 0 0 Z " fill="#EC8E09" transform="translate(24,140)"/>
<path d="M0 0 C0.66 0.33 1.32 0.66 2 1 C0.1875 3.5 0.1875 3.5 -2 6 C-2.99 6 -3.98 6 -5 6 C-3.63016497 2.83884224 -3.0109362 2.0072908 0 0 Z " fill="#EA8C0A" transform="translate(174,527)"/>
</svg>
