<svg version="1.1" id="Layer_1" xmlns="http://www.w3.org/2000/svg" xmlns:xlink="http://www.w3.org/1999/xlink" x="0px" y="0px"
	 width="100%" viewBox="0 0 1024 1024" enable-background="new 0 0 1024 1024" xml:space="preserve">
<path fill="#0B0809" opacity="1.000000" stroke="none" 
	d="
M578.000000,1025.000000 
	C385.333344,1025.000000 193.166672,1025.000000 1.000000,1025.000000 
	C1.000000,683.666687 1.000000,342.333344 1.000000,1.000000 
	C342.333344,1.000000 683.666687,1.000000 1025.000000,1.000000 
	C1025.000000,342.333344 1025.000000,683.666687 1025.000000,1025.000000 
	C876.166687,1025.000000 727.333313,1025.000000 578.000000,1025.000000 
M531.885193,932.942810 
	C546.963501,931.558838 562.167419,930.975281 577.095520,928.633728 
	C614.907043,922.702820 651.378113,911.807312 686.144531,895.760193 
	C756.650085,863.216980 812.745911,813.415649 857.179260,750.304260 
	C902.552551,685.857910 926.329468,613.714722 931.254517,535.226318 
	C934.460510,484.133850 927.783630,434.203094 912.541443,385.450775 
	C895.176819,329.909607 867.098328,280.163208 828.822083,236.424896 
	C773.341675,173.027451 705.802551,128.192276 624.052429,105.780365 
	C599.086670,98.935959 573.619324,95.231461 547.015808,93.065514 
	C542.085693,93.087952 537.155640,93.110390 531.614441,92.983864 
	C531.406738,92.954948 531.199097,92.926033 530.448730,92.256966 
	C515.987732,92.293106 501.526733,92.329254 486.198181,92.238892 
	C449.783447,93.734039 414.804016,102.630447 380.371002,113.645363 
	C334.788330,128.226990 293.455841,150.984100 255.624130,180.305603 
	C199.674652,223.669250 158.208054,278.311249 129.437881,342.632996 
	C110.751938,384.409332 100.387390,428.508118 96.032051,474.032837 
	C91.455086,521.874084 95.907784,569.005859 107.577522,615.493530 
	C116.897903,652.622253 131.158829,687.763489 150.529724,720.863220 
	C187.601578,784.209473 237.374329,835.155640 299.870819,873.452881 
	C341.079987,898.705383 385.799255,915.400879 433.182739,924.888489 
	C455.577332,929.372498 478.166290,932.326660 501.960938,932.939331 
	C511.628876,932.891235 521.296814,932.843079 531.885193,932.942810 
z"/>
<path fill="#EA3499" opacity="1.000000" stroke="none" 
	d="
M547.864685,93.222000 
	C573.619324,95.231461 599.086670,98.935959 624.052429,105.780365 
	C705.802551,128.192276 773.341675,173.027451 828.822083,236.424896 
	C867.098328,280.163208 895.176819,329.909607 912.541443,385.450775 
	C927.783630,434.203094 934.460510,484.133850 931.254517,535.226318 
	C926.329468,613.714722 902.552551,685.857910 857.179260,750.304260 
	C812.745911,813.415649 756.650085,863.216980 686.144531,895.760193 
	C651.378113,911.807312 614.907043,922.702820 577.095520,928.633728 
	C562.167419,930.975281 546.963501,931.558838 531.058105,932.687622 
	C520.499451,932.555603 510.767822,932.678833 501.036224,932.802063 
	C478.166290,932.326660 455.577332,929.372498 433.182739,924.888489 
	C385.799255,915.400879 341.079987,898.705383 299.870819,873.452881 
	C237.374329,835.155640 187.601578,784.209473 150.529724,720.863220 
	C131.158829,687.763489 116.897903,652.622253 107.577522,615.493530 
	C95.907784,569.005859 91.455086,521.874084 96.032051,474.032837 
	C100.387390,428.508118 110.751938,384.409332 129.437881,342.632996 
	C158.208054,278.311249 199.674652,223.669250 255.624130,180.305603 
	C293.455841,150.984100 334.788330,128.226990 380.371002,113.645363 
	C414.804016,102.630447 449.783447,93.734039 487.015747,92.430130 
	C502.219391,92.713287 516.605408,92.805206 530.991455,92.897125 
	C531.199097,92.926033 531.406738,92.954948 532.256958,93.242279 
	C537.887939,93.407791 542.876282,93.314896 547.864685,93.222000 
M535.432983,914.291443 
	C569.000977,912.798645 601.743958,906.640564 633.719727,896.476135 
	C679.692749,881.862244 721.614685,859.417297 759.105469,829.159058 
	C813.522217,785.239990 855.523621,731.658630 882.584106,666.825073 
	C897.341370,631.468384 906.942383,594.756104 911.084839,556.670776 
	C912.414734,544.443726 913.024048,532.138184 914.115173,520.804932 
	C914.115173,524.578918 914.115173,528.352905 914.115173,532.126831 
	C914.324219,532.123901 914.533264,532.120972 914.742310,532.118042 
	C914.742310,519.368225 914.742310,506.618347 914.742310,493.868530 
	C914.483337,493.864960 914.224304,493.861420 913.965332,493.857849 
	C913.965332,498.622437 913.965332,503.386993 913.693726,507.360046 
	C912.037048,487.460632 911.503296,467.389832 908.497742,447.696289 
	C901.512512,401.925690 886.362915,358.726410 863.746399,318.286591 
	C836.088684,268.832825 799.718201,226.839218 754.924805,192.090927 
	C720.456299,165.352081 682.793335,144.595016 641.490051,130.488312 
	C611.779724,120.341049 581.188171,114.320305 549.941040,112.095413 
	C519.998779,109.963425 489.902649,109.330261 460.127258,113.429298 
	C420.895172,118.830193 383.026855,129.853104 346.998352,146.380951 
	C297.855438,168.924942 254.995636,200.179657 218.311218,240.086334 
	C154.341644,309.674835 120.038437,391.957581 113.387230,485.730133 
	C109.992302,533.593872 115.512505,580.883179 129.493500,626.916748 
	C146.766464,683.789490 175.220276,734.544373 214.986511,778.729431 
	C277.178741,847.832397 353.506287,892.098572 445.506409,908.143921 
	C459.893921,910.653320 474.510376,911.850220 488.460266,913.903748 
	C487.563751,914.062378 486.667236,914.221008 485.770721,914.379578 
	C485.786499,914.908325 485.802277,915.437073 485.818054,915.965820 
	C501.881622,915.965820 517.945190,915.971619 534.008606,915.923645 
	C534.321411,915.922729 534.632324,915.290649 535.432983,914.291443 
M97.004158,521.495361 
	C97.004158,509.957794 97.004158,498.420227 97.004158,486.882629 
	C96.793594,486.886749 96.583031,486.890869 96.372467,486.894989 
	C96.372467,503.237885 96.372467,519.580811 96.372467,535.923706 
	C96.583115,535.923401 96.793762,535.923035 97.004410,535.922729 
	C97.004410,531.445801 97.004410,526.968872 97.004158,521.495361 
M111.873337,503.743011 
	C111.873337,501.786621 111.873337,499.830261 111.873337,497.873871 
	C111.687698,497.876160 111.502068,497.878448 111.316429,497.880737 
	C111.316429,505.587311 111.316429,513.293884 111.316429,521.000427 
	C111.501282,521.001221 111.686142,521.002075 111.870995,521.002869 
	C111.870995,515.560120 111.870995,510.117401 111.873337,503.743011 
z"/>
<path fill="#DF64B3" opacity="1.000000" stroke="none" 
	d="
M530.720093,92.577042 
	C516.605408,92.805206 502.219391,92.713287 487.449524,92.493385 
	C501.526733,92.329254 515.987732,92.293106 530.720093,92.577042 
z"/>
<path fill="#F651B7" opacity="1.000000" stroke="none" 
	d="
M501.498596,932.870728 
	C510.767822,932.678833 520.499451,932.555603 530.597900,932.613647 
	C521.296814,932.843079 511.628876,932.891235 501.498596,932.870728 
z"/>
<path fill="#DF64B3" opacity="1.000000" stroke="none" 
	d="
M547.440247,93.143753 
	C542.876282,93.314896 537.887939,93.407791 532.562500,93.316757 
	C537.155640,93.110390 542.085693,93.087952 547.440247,93.143753 
z"/>
<path fill="#0B0809" opacity="1.000000" stroke="none" 
	d="
M913.963013,519.868591 
	C913.024048,532.138184 912.414734,544.443726 911.084839,556.670776 
	C906.942383,594.756104 897.341370,631.468384 882.584106,666.825073 
	C855.523621,731.658630 813.522217,785.239990 759.105469,829.159058 
	C721.614685,859.417297 679.692749,881.862244 633.719727,896.476135 
	C601.743958,906.640564 569.000977,912.798645 534.754395,914.649780 
	C519.057495,914.556702 504.039215,914.105408 489.020966,913.654053 
	C474.510376,911.850220 459.893921,910.653320 445.506409,908.143921 
	C353.506287,892.098572 277.178741,847.832397 214.986511,778.729431 
	C175.220276,734.544373 146.766464,683.789490 129.493500,626.916748 
	C115.512505,580.883179 109.992302,533.593872 113.387230,485.730133 
	C120.038437,391.957581 154.341644,309.674835 218.311218,240.086334 
	C254.995636,200.179657 297.855438,168.924942 346.998352,146.380951 
	C383.026855,129.853104 420.895172,118.830193 460.127258,113.429298 
	C489.902649,109.330261 519.998779,109.963425 549.941040,112.095413 
	C581.188171,114.320305 611.779724,120.341049 641.490051,130.488312 
	C682.793335,144.595016 720.456299,165.352081 754.924805,192.090927 
	C799.718201,226.839218 836.088684,268.832825 863.746399,318.286591 
	C886.362915,358.726410 901.512512,401.925690 908.497742,447.696289 
	C911.503296,467.389832 912.037048,487.460632 913.758545,508.196777 
	C913.869873,512.645203 913.916443,516.256897 913.963013,519.868591 
M437.010620,444.588196 
	C437.333527,444.778412 437.656433,444.968658 437.956116,445.066101 
	C437.956116,445.066101 437.864014,445.091949 438.016113,445.557556 
	C438.384430,445.876251 438.752747,446.194946 439.234222,446.816132 
	C439.234222,446.816132 439.545990,446.900391 439.893707,447.366699 
	C440.912994,448.264832 441.932312,449.162964 442.999695,450.003723 
	C442.999695,450.003723 442.939972,450.048370 443.191101,450.658447 
	C445.113525,452.454529 447.035980,454.250580 449.211853,456.665985 
	C462.480225,469.031494 473.961670,482.691711 480.870697,499.961761 
	C478.070312,500.097351 475.596710,500.217133 472.322174,500.187714 
	C471.516785,500.239929 470.711426,500.292175 469.004700,500.157471 
	C446.379303,500.210999 423.753906,500.264526 400.396301,500.174805 
	C399.903809,500.224274 399.411346,500.273773 398.014191,500.141785 
	C390.817261,500.349823 383.620300,500.557861 375.900574,500.840424 
	C375.531586,501.174927 375.162598,501.509430 374.868073,501.861359 
	C374.868073,501.861359 374.857269,501.785645 374.309143,502.036987 
	C373.921539,502.687744 373.533936,503.338470 372.976349,504.893829 
	C372.999146,508.263214 373.021942,511.632629 372.881775,515.926697 
	C372.988708,539.263794 373.095642,562.600891 373.009277,586.495850 
	C372.810120,586.707336 372.618622,586.927612 372.400269,587.116943 
	C372.378021,587.136230 372.133301,586.991333 372.095062,586.885437 
	C371.647919,585.646606 371.079010,584.430359 370.809784,583.151917 
	C367.953186,569.586121 365.145050,556.010071 362.404694,541.738037 
	C361.737335,535.452820 360.857788,529.180725 360.467651,522.878357 
	C360.136932,517.535522 357.641418,516.018188 352.440125,516.032837 
	C297.954102,516.186401 243.467453,516.131226 188.980988,516.105164 
	C177.156158,516.099487 174.939011,519.244080 179.104889,530.448608 
	C179.500015,531.511292 180.217697,532.454102 180.869370,534.141541 
	C184.050812,539.191345 186.679382,544.710938 190.505203,549.213196 
	C212.069138,574.589661 237.832642,594.556030 268.908600,606.898804 
	C298.520966,618.660339 329.970947,622.609985 361.260590,626.974365 
	C373.335205,628.658508 385.277069,630.490112 395.586365,637.853577 
	C415.097290,651.789185 426.007233,689.089355 407.829071,716.290527 
	C390.933624,741.572388 368.016907,758.778076 339.548553,769.006531 
	C334.825806,770.703369 330.435455,773.325195 325.275421,776.074829 
	C324.830109,777.479126 323.997772,778.883789 323.999084,780.287659 
	C324.012909,795.183899 324.159241,810.079956 324.302277,825.632080 
	C325.887939,826.989319 327.473602,828.346558 329.955994,829.972961 
	C361.307159,830.012939 392.658356,830.062256 424.009521,830.051758 
	C425.041412,830.051453 426.073120,829.444275 426.855286,829.382629 
	C426.855286,829.382629 427.114166,829.636047 427.877533,829.612061 
	C428.979309,829.106384 430.081085,828.600708 431.046173,828.001648 
	C431.046173,828.001648 430.953186,828.138611 431.647980,828.006287 
	C431.960754,827.666077 432.273529,827.325867 433.183105,826.776001 
	C434.260895,825.121033 435.775665,823.604248 436.349304,821.789856 
	C442.552460,802.168762 456.623566,790.874146 476.032776,784.342957 
	C504.146667,776.680969 532.434265,777.313416 561.445007,782.910645 
	C563.497559,783.552246 565.566772,784.145325 567.600098,784.842957 
	C586.753845,791.413696 601.761169,802.129089 607.073486,823.143494 
	C607.714844,825.680420 610.979614,827.554138 613.928467,830.015808 
	C625.210388,830.056030 636.492432,830.154175 647.774109,830.124207 
	C670.173401,830.064636 692.572571,829.934509 715.714539,829.985168 
	C718.490784,828.522095 721.267090,827.059021 724.681885,824.917358 
	C724.703491,814.630615 724.725037,804.343811 724.868103,793.237061 
	C724.351440,790.293884 723.804016,787.355713 723.324158,784.406555 
	C721.957703,776.008789 717.306396,770.711548 709.438416,767.103882 
	C691.020874,758.658997 674.508301,747.211853 660.075989,732.926147 
	C652.566040,725.492676 645.935059,717.282837 643.005188,706.927490 
	C636.230347,682.982910 641.408691,661.151672 655.957642,641.455200 
	C671.223267,620.788696 692.563049,607.925842 715.172668,596.988098 
	C744.148987,582.970459 775.027100,574.241394 805.715881,565.012451 
	C813.654175,562.625183 821.666626,560.373047 829.375732,557.368042 
	C836.468689,554.603149 840.391724,549.355164 839.922852,541.096497 
	C839.451721,532.797974 839.738037,524.456360 839.864868,515.282837 
	C839.611328,512.913879 839.651184,510.463776 839.024963,508.197815 
	C838.346313,505.742157 837.046814,503.458038 835.809448,500.822601 
	C835.809448,500.822601 835.469116,500.758331 834.988037,500.336304 
	C834.364075,500.331329 833.740112,500.326324 832.258728,500.166992 
	C830.811279,500.217224 829.363831,500.267456 827.013000,500.131134 
	C818.389343,500.196106 809.765686,500.261108 800.405884,500.180939 
	C799.910828,500.233429 799.415710,500.285950 798.016479,500.149384 
	C777.714966,500.212097 757.413391,500.274811 736.282288,500.180115 
	C735.161011,500.229401 734.039795,500.278656 732.014038,500.144379 
	C723.050537,500.203522 714.087097,500.262665 704.290649,500.166046 
	C703.165466,500.216248 702.040283,500.266449 700.169250,500.134033 
	C699.153687,500.196381 698.138062,500.258728 696.286987,500.180511 
	C695.161926,500.231598 694.036804,500.282684 692.009766,500.143890 
	C675.046326,500.202454 658.082947,500.261047 640.391785,500.166016 
	C639.900696,500.214050 639.409668,500.262054 638.014221,500.126434 
	C619.713440,500.190948 601.412659,500.255463 582.235229,500.168823 
	C580.449646,500.221863 578.664062,500.274872 575.973145,500.142578 
	C554.469604,500.142578 532.966064,500.142578 510.462585,500.142578 
	C514.005310,495.039917 516.361694,490.499664 519.765320,486.969208 
	C528.282104,478.135040 537.273743,469.758759 546.658630,461.034271 
	C547.273438,460.511871 547.888245,459.989471 548.225220,459.383698 
	C548.225220,459.383698 548.484619,459.513672 549.032593,459.224915 
	C550.160400,458.355438 551.288147,457.485931 552.498169,456.619415 
	C552.498169,456.619415 552.528076,456.542725 553.005066,456.257660 
	C553.373901,455.863129 553.742737,455.468567 554.033081,455.035522 
	C554.033081,455.035522 554.077820,455.110535 554.660400,454.963654 
	C555.600769,454.229675 556.541138,453.495728 557.730225,452.739746 
	C557.730225,452.739746 557.808899,452.502686 558.342773,452.166290 
	C560.342041,450.550659 562.341370,448.934998 564.242004,447.291931 
	C564.242004,447.291931 564.227417,447.393341 564.726501,447.260468 
	C564.988464,447.042328 565.250427,446.824219 565.578064,446.605621 
	C565.578064,446.605621 565.605591,446.546021 566.080688,446.279572 
	C566.443726,445.894287 566.806763,445.509003 567.092407,445.111816 
	C567.092407,445.111816 567.085449,445.189819 567.669861,445.023010 
	C568.265442,444.485748 568.860962,443.948486 569.345764,443.352051 
	C569.345764,443.352051 569.402405,443.464081 569.827148,443.332611 
	C570.095398,443.187378 570.307556,442.983734 570.672363,442.722870 
	C570.672363,442.722870 570.707825,442.517120 571.144409,442.233215 
	C571.478760,441.856354 571.813171,441.479462 572.071838,441.068176 
	C572.071838,441.068176 572.099243,441.146698 572.675964,440.986481 
	C573.236694,440.440155 573.797363,439.893860 574.273438,439.317627 
	C574.273438,439.317627 574.293701,439.405121 574.888367,439.152100 
	C575.955383,438.124207 577.022400,437.096313 578.032837,436.031281 
	C578.032837,436.031281 578.010254,436.095154 578.556580,435.951202 
	C578.761536,435.645752 578.966553,435.340332 579.038330,435.029694 
	C579.038330,435.029694 579.034851,435.162842 579.577393,434.982605 
	C579.784485,434.675232 579.991638,434.367859 580.059692,434.061951 
	C580.059692,434.061951 580.064148,434.200958 580.592468,433.975739 
	C580.793762,433.657837 580.995056,433.339935 581.078552,433.049866 
	C581.078552,433.049866 581.109497,433.166809 581.688965,432.985321 
	C582.194763,432.372223 582.700562,431.759125 583.130371,431.120087 
	C583.130371,431.120087 583.147217,431.198547 583.704651,430.977539 
	C584.182983,430.351471 584.661316,429.725403 585.048340,429.047638 
	C585.048340,429.047638 585.106934,429.134674 585.694458,428.873383 
	C586.619385,427.699860 587.544312,426.526306 588.256470,425.210541 
	C588.256470,425.210541 588.436218,425.392639 588.963562,424.993866 
	C596.823242,414.983673 602.197876,403.955048 603.080811,390.106079 
	C603.020508,386.729340 602.960205,383.352600 603.031494,379.179352 
	C602.940186,378.111877 602.848877,377.044434 602.825256,375.196564 
	C599.228699,365.151978 595.632141,355.107391 591.980469,344.529053 
	C591.741150,344.281342 591.501831,344.033661 591.016663,343.884399 
	C591.016663,343.884399 591.255249,343.765991 591.134644,343.072021 
	C587.462830,338.341492 583.791077,333.610992 579.861816,328.260712 
	C573.033936,322.022858 566.206055,315.785034 558.879822,309.059265 
	C556.095581,306.912201 553.074097,305.008209 550.575500,302.568634 
	C544.989624,297.114807 539.664368,291.394104 534.141541,285.894287 
	C534.141541,285.894287 534.267944,285.823822 534.052429,285.310059 
	C533.737915,285.125305 533.423462,284.940582 533.103516,284.021240 
	C532.094971,281.649841 531.086426,279.278473 530.129089,276.186188 
	C530.883606,267.883026 531.638062,259.579834 532.154419,251.100250 
	C532.154419,251.100250 532.383301,251.270569 532.826233,250.789108 
	C533.261597,249.564911 533.696899,248.340729 534.002441,247.000610 
	C534.002441,247.000610 534.135315,247.113403 534.620850,246.757126 
	C534.792175,246.182220 534.963501,245.607330 535.066711,245.050537 
	C535.066711,245.050537 535.103027,245.110901 535.651001,244.744934 
	C536.470337,243.207565 537.289673,241.670212 538.097656,240.095047 
	C538.097656,240.095047 538.136536,240.088516 538.671753,239.721695 
	C539.537109,238.208603 540.402405,236.695511 541.172058,235.162537 
	C541.172058,235.162537 541.160217,235.259537 541.658142,235.048309 
	C541.811829,234.729980 541.965515,234.411652 542.084229,234.000000 
	C542.084229,234.000000 542.139954,234.085922 542.654541,233.847366 
	C542.952209,233.362000 543.249939,232.876617 543.442200,232.390610 
	C543.442200,232.390610 543.462036,232.494141 543.959290,232.062241 
	C545.077026,230.439194 546.194763,228.816147 547.189453,227.170578 
	C547.189453,227.170578 547.175598,227.294846 547.687134,227.082764 
	C547.847839,226.759659 548.008545,226.436554 548.024597,226.022217 
	C548.024597,226.022217 548.153687,226.134445 548.617371,225.919815 
	C548.917297,225.507889 549.217285,225.095978 549.736450,224.619736 
	C549.736450,224.619736 549.738831,224.391281 550.078186,224.118011 
	C550.295410,223.907135 550.433411,223.653183 550.400574,223.351517 
	C550.400574,223.351517 550.414429,223.442169 550.893250,223.081955 
	C551.314880,222.419479 551.736572,221.757004 552.050659,221.040726 
	C552.050659,221.040726 552.132324,221.129059 552.649475,220.869080 
	C552.938110,220.364044 553.226685,219.858994 553.431580,219.359116 
	C553.431580,219.359116 553.455811,219.439377 553.935242,219.089783 
	C554.326294,218.425415 554.717346,217.761047 555.015503,217.013336 
	C555.015503,217.013336 555.119202,217.082642 555.690979,216.748718 
	C557.465515,213.852570 559.240051,210.956436 561.075073,208.037827 
	C561.075073,208.037827 561.052124,207.977524 561.520630,207.637268 
	C561.878052,206.952148 562.235535,206.267029 562.763733,205.485611 
	C562.763733,205.485611 562.695435,205.301834 562.982666,204.852341 
	C563.163757,204.348221 563.344910,203.844086 563.297119,202.954727 
	C563.297119,202.954727 563.507324,203.346741 563.962219,202.800674 
	C570.220093,187.354919 569.134827,172.376633 561.057251,157.131104 
	C558.644897,153.218414 556.232483,149.305740 553.820129,145.393066 
	C553.158569,145.647949 552.497009,145.902832 551.835449,146.157715 
	C551.835449,147.684586 551.850769,149.211639 551.833069,150.738297 
	C551.625122,168.680038 545.651917,183.918961 530.931152,194.986069 
	C526.283569,198.480118 521.345154,201.600906 516.816956,205.237610 
	C505.438202,214.376160 493.496307,222.977753 483.129028,233.167053 
	C471.944641,244.159409 464.728516,257.889374 462.878265,274.780731 
	C460.937622,289.158081 461.664734,303.006775 471.019714,315.757050 
	C471.676636,316.507904 472.333588,317.258759 473.000000,318.000000 
	C473.000000,318.000000 472.990112,318.009033 473.120178,318.533813 
	C473.402832,318.746063 473.685516,318.958282 473.963196,319.071625 
	C473.963196,319.071625 473.864441,319.079285 474.100677,319.718506 
	C478.872681,327.575287 483.644714,335.432037 488.606171,344.164642 
	C488.581635,349.035767 488.557098,353.906891 488.633728,358.774323 
	C488.633728,358.774323 488.615204,358.674805 488.180298,359.107758 
	C488.049652,359.701111 487.918976,360.294495 487.276154,361.319336 
	C484.703369,367.075317 479.883942,370.513367 474.853729,373.832397 
	C474.853729,373.832397 474.700836,373.521667 474.077332,373.688599 
	C473.336639,374.086426 472.595978,374.484222 471.925201,374.916016 
	C471.925201,374.916016 471.955811,374.844574 471.104553,374.874725 
	C465.132263,374.790924 459.160004,374.707092 453.197601,374.700226 
	C453.197601,374.700226 453.271210,374.675781 452.834747,374.186218 
	C451.293793,373.368164 449.752838,372.550110 447.993317,371.980499 
	C447.993317,371.980499 448.215912,371.738159 447.875702,371.213531 
	C446.717926,370.316895 445.560150,369.420258 444.390808,368.615509 
	C444.390808,368.615509 444.483063,368.608002 444.259613,368.081818 
	C443.854980,367.701080 443.450317,367.320343 443.001831,366.991882 
	C443.001831,366.991882 443.064056,366.964020 442.924896,366.433990 
	C442.652405,366.203613 442.379883,365.973267 441.871857,365.109131 
	C440.269653,362.522430 438.667450,359.935760 437.219879,357.171387 
	C437.219879,357.171387 437.047699,357.010681 437.014954,356.508179 
	C436.940704,356.357666 436.866425,356.207153 436.779968,355.282410 
	C436.155396,352.881409 435.388489,350.507202 434.930664,348.074829 
	C432.852325,337.033020 435.817139,326.702209 439.881531,316.029388 
	C439.832581,315.755371 439.783630,315.481354 439.734650,315.207306 
	C439.424622,315.405640 439.114594,315.603973 438.188232,316.046692 
	C436.482086,318.038818 434.775940,320.030945 432.556732,322.452942 
	C418.528290,337.299683 409.706055,354.891907 405.448425,374.756256 
	C402.508942,388.470520 403.810272,401.753906 410.889923,414.095428 
	C410.889923,414.095428 410.815460,414.078766 410.911499,414.761719 
	C412.054382,416.651459 413.197266,418.541199 414.332977,420.572052 
	C414.332977,420.572052 414.469299,420.609375 414.782471,421.177399 
	C416.148529,422.842346 417.514587,424.507324 418.905304,426.098785 
	C418.905304,426.098785 418.829376,426.114288 419.026123,426.703094 
	C419.866272,427.601959 420.706421,428.500824 421.884979,429.378937 
	C421.884979,429.378937 421.550079,429.378143 421.755127,429.859802 
	C422.022827,430.077820 422.290527,430.295837 422.679108,430.267029 
	C422.679108,430.267029 422.512970,430.485962 422.724426,430.915283 
	C422.911346,431.182678 423.151672,431.387329 423.480560,431.554718 
	C423.480560,431.554718 423.498291,431.594360 423.838776,432.114502 
	C425.041718,433.250244 426.244690,434.385986 427.499084,435.522125 
	C427.499084,435.522125 427.507629,435.572815 427.833801,436.047699 
	C428.423340,436.528046 429.012848,437.008392 429.627411,437.389832 
	C429.627411,437.389832 429.525604,437.382996 429.774475,437.873322 
	C430.069977,438.083221 430.365509,438.293152 430.662445,438.370056 
	C430.662445,438.370056 430.530426,438.386017 430.814056,438.877319 
	C431.139801,439.060272 431.465515,439.243195 431.766083,439.306183 
	C431.766083,439.306183 431.649567,439.344208 431.957214,439.885773 
	C432.915283,440.664246 433.873322,441.442719 434.852600,442.112885 
	C434.852600,442.112885 434.743195,442.098053 434.961334,442.636169 
	C435.281921,442.839996 435.602509,443.043854 435.920319,443.090179 
	C435.920319,443.090179 435.762939,443.097107 435.984131,443.629089 
	C436.307587,443.822266 436.631073,444.015472 436.950104,444.050720 
	C436.950104,444.050720 436.792236,444.057617 437.010620,444.588196 
z"/>
<path fill="#F651B7" opacity="1.000000" stroke="none" 
	d="
M488.740601,913.778931 
	C504.039215,914.105408 519.057495,914.556702 534.509949,914.980591 
	C534.632324,915.290649 534.321411,915.922729 534.008606,915.923645 
	C517.945190,915.971619 501.881622,915.965820 485.818054,915.965820 
	C485.802277,915.437073 485.786499,914.908325 485.770721,914.379578 
	C486.667236,914.221008 487.563751,914.062378 488.740601,913.778931 
z"/>
<path fill="#EB3299" opacity="1.000000" stroke="none" 
	d="
M97.004288,521.993652 
	C97.004410,526.968872 97.004410,531.445801 97.004410,535.922729 
	C96.793762,535.923035 96.583115,535.923401 96.372467,535.923706 
	C96.372467,519.580811 96.372467,503.237885 96.372467,486.894989 
	C96.583031,486.890869 96.793594,486.886749 97.004158,486.882629 
	C97.004158,498.420227 97.004158,509.957794 97.004288,521.993652 
z"/>
<path fill="#F651B7" opacity="1.000000" stroke="none" 
	d="
M914.039124,520.336792 
	C913.916443,516.256897 913.869873,512.645203 913.894287,508.592560 
	C913.965332,503.386993 913.965332,498.622437 913.965332,493.857849 
	C914.224304,493.861420 914.483337,493.864960 914.742310,493.868530 
	C914.742310,506.618347 914.742310,519.368225 914.742310,532.118042 
	C914.533264,532.120972 914.324219,532.123901 914.115173,532.126831 
	C914.115173,528.352905 914.115173,524.578918 914.039124,520.336792 
z"/>
<path fill="#F651B7" opacity="1.000000" stroke="none" 
	d="
M111.872162,504.208862 
	C111.870995,510.117401 111.870995,515.560120 111.870995,521.002869 
	C111.686142,521.002075 111.501282,521.001221 111.316429,521.000427 
	C111.316429,513.293884 111.316429,505.587311 111.316429,497.880737 
	C111.502068,497.878448 111.687698,497.876160 111.873337,497.873871 
	C111.873337,499.830261 111.873337,501.786621 111.872162,504.208862 
z"/>
<path fill="#EB3299" opacity="1.000000" stroke="none" 
	d="
M325.891479,775.519592 
	C330.435455,773.325195 334.825806,770.703369 339.548553,769.006531 
	C368.016907,758.778076 390.933624,741.572388 407.829071,716.290527 
	C426.007233,689.089355 415.097290,651.789185 395.586365,637.853577 
	C385.277069,630.490112 373.335205,628.658508 361.260590,626.974365 
	C329.970947,622.609985 298.520966,618.660339 268.908600,606.898804 
	C237.832642,594.556030 212.069138,574.589661 190.505203,549.213196 
	C186.679382,544.710938 184.050812,539.191345 180.932816,533.513733 
	C181.061447,532.694702 181.126633,532.503418 181.639526,532.240723 
	C197.409637,532.126099 212.732086,532.038147 228.054459,532.048157 
	C272.025116,532.076965 315.995758,532.145386 360.141846,532.543213 
	C360.986023,536.071045 361.654785,539.253967 362.323547,542.436890 
	C365.145050,556.010071 367.953186,569.586121 370.809784,583.151917 
	C371.079010,584.430359 371.647919,585.646606 372.095062,586.885437 
	C372.133301,586.991333 372.378021,587.136230 372.400269,587.116943 
	C372.618622,586.927612 372.810120,586.707336 373.294159,585.856079 
	C373.723724,582.911743 373.987823,580.607483 373.994446,578.302490 
	C374.054108,557.577698 374.068573,536.852783 374.558472,516.106995 
	C470.620148,516.064758 566.219666,516.025452 661.819214,516.028442 
	C721.110291,516.030334 780.401367,516.096375 839.692444,516.133667 
	C839.738037,524.456360 839.451721,532.797974 839.922852,541.096497 
	C840.391724,549.355164 836.468689,554.603149 829.375732,557.368042 
	C821.666626,560.373047 813.654175,562.625183 805.715881,565.012451 
	C775.027100,574.241394 744.148987,582.970459 715.172668,596.988098 
	C692.563049,607.925842 671.223267,620.788696 655.957642,641.455200 
	C641.408691,661.151672 636.230347,682.982910 643.005188,706.927490 
	C645.935059,717.282837 652.566040,725.492676 660.075989,732.926147 
	C674.508301,747.211853 691.020874,758.658997 709.438416,767.103882 
	C717.306396,770.711548 721.957703,776.008789 723.324158,784.406555 
	C723.804016,787.355713 724.351440,790.293884 724.645691,794.019836 
	C724.296692,805.067078 724.170044,815.331543 724.043396,825.596008 
	C721.267090,827.059021 718.490784,828.522095 714.980286,829.718506 
	C712.931946,829.299133 711.617981,829.014282 710.303772,829.013062 
	C679.504395,828.984131 648.705078,828.974304 617.905762,829.013977 
	C616.279663,829.016052 614.654236,829.484131 613.028503,829.735229 
	C610.979614,827.554138 607.714844,825.680420 607.073486,823.143494 
	C601.761169,802.129089 586.753845,791.413696 567.600098,784.842957 
	C565.566772,784.145325 563.497559,783.552246 560.927917,782.425842 
	C558.744934,781.295776 557.127014,780.286926 555.406006,780.059937 
	C530.612610,776.790710 505.851990,776.408813 481.233582,781.537048 
	C479.178314,781.965210 477.347900,783.472717 475.413025,784.478760 
	C456.623566,790.874146 442.552460,802.168762 436.349304,821.789856 
	C435.775665,823.604248 434.260895,825.121033 432.604919,827.063354 
	C431.668884,827.613403 431.311035,827.875977 430.953186,828.138611 
	C430.953186,828.138611 431.046173,828.001648 430.722961,828.036865 
	C429.304535,828.593384 428.209351,829.114685 427.114166,829.636047 
	C427.114166,829.636047 426.855286,829.382629 426.507172,829.230042 
	C395.250641,829.047119 364.342224,829.006897 333.433807,829.016968 
	C331.975586,829.017456 330.517456,829.464661 329.059296,829.703796 
	C327.473602,828.346558 325.887939,826.989319 324.460175,824.932495 
	C324.747101,822.087891 324.945587,819.944397 324.993896,817.797546 
	C325.311157,803.705322 325.596039,789.612305 325.891479,775.519592 
z"/>
<path fill="#F651B7" opacity="1.000000" stroke="none" 
	d="
M839.778687,515.708252 
	C780.401367,516.096375 721.110291,516.030334 661.819214,516.028442 
	C566.219666,516.025452 470.620148,516.064758 374.403076,515.899292 
	C373.538666,515.475647 373.291718,515.238831 373.044769,515.002014 
	C373.021942,511.632629 372.999146,508.263214 373.351746,504.343018 
	C374.103851,503.123383 374.480560,502.454498 374.857239,501.785645 
	C374.857269,501.785645 374.868073,501.861359 375.311371,501.901855 
	C410.239685,501.942322 444.724670,501.942322 479.209686,501.942322 
	C479.222107,501.773407 479.234558,501.604462 479.246979,501.435547 
	C477.205688,501.069336 475.164398,500.703125 473.123108,500.336914 
	C475.596710,500.217133 478.070312,500.097351 480.870697,499.961761 
	C473.961670,482.691711 462.480225,469.031494 449.185394,456.116028 
	C447.085968,453.726837 445.012970,451.887604 442.939972,450.048370 
	C442.939972,450.048370 442.999695,450.003723 442.921204,449.697327 
	C441.743805,448.560730 440.644897,447.730560 439.545990,446.900391 
	C439.545990,446.900391 439.234222,446.816132 439.159973,446.398926 
	C438.678467,445.685120 438.271240,445.388550 437.864014,445.091949 
	C437.864014,445.091949 437.956116,445.066101 437.797607,444.899841 
	C437.356812,444.508301 437.074524,444.282959 436.792236,444.057617 
	C436.792236,444.057617 436.950104,444.050720 436.785858,443.910645 
	C436.335388,443.546082 436.049164,443.321594 435.762939,443.097107 
	C435.762939,443.097107 435.920319,443.090179 435.760193,442.942505 
	C435.314453,442.562561 435.028839,442.330322 434.743195,442.098053 
	C434.743195,442.098053 434.852600,442.112885 434.808777,441.812439 
	C433.726501,440.789398 432.688019,440.066803 431.649567,439.344208 
	C431.649567,439.344208 431.766083,439.306183 431.618713,439.134888 
	C431.157715,438.771088 430.844055,438.578552 430.530426,438.386017 
	C430.530426,438.386017 430.662445,438.370056 430.534424,438.191193 
	C430.112793,437.802551 429.819214,437.592773 429.525604,437.382996 
	C429.525604,437.382996 429.627411,437.389832 429.553925,437.122375 
	C428.822815,436.427582 428.165222,436.000214 427.507629,435.572815 
	C427.507629,435.572815 427.499084,435.522125 427.455139,435.176788 
	C426.106934,433.752411 424.802612,432.673370 423.498291,431.594360 
	C423.498291,431.594360 423.480560,431.554718 423.386414,431.306763 
	C423.110962,430.761200 422.851196,430.570251 422.512970,430.485962 
	C422.512970,430.485962 422.679108,430.267029 422.520142,430.144348 
	C422.090820,429.807129 421.820435,429.592651 421.550079,429.378143 
	C421.550079,429.378143 421.884979,429.378937 421.751801,429.034485 
	C420.688873,427.831451 419.759125,426.972870 418.829376,426.114288 
	C418.829376,426.114288 418.905304,426.098785 418.856079,425.781799 
	C417.360992,423.846313 415.915161,422.227844 414.469299,420.609375 
	C414.469299,420.609375 414.332977,420.572052 414.420410,420.149414 
	C413.277039,417.844116 412.046265,415.961456 410.815460,414.078766 
	C410.815460,414.078766 410.889923,414.095428 410.888489,413.735077 
	C407.210480,402.998322 404.865112,392.388641 406.069397,381.315887 
	C406.596832,376.466217 407.174835,371.481842 411.257141,366.281036 
	C413.839844,371.543121 415.909149,375.759155 417.999451,380.311249 
	C418.022522,381.096191 418.024597,381.545105 417.930389,382.108643 
	C417.712494,382.526825 417.781006,382.790436 418.175049,383.306061 
	C418.514526,384.424683 418.718536,385.251343 418.739075,386.328705 
	C418.768707,387.702606 418.981903,388.825836 419.374756,390.188385 
	C420.011261,391.305756 420.468048,392.183807 420.955322,393.378906 
	C421.304199,394.465729 421.622589,395.235474 421.969299,396.334412 
	C422.326050,397.460938 422.654510,398.258270 423.108551,399.387390 
	C426.969513,406.158478 429.902527,413.269775 434.611969,418.893402 
	C443.659576,429.697449 453.949921,439.450684 463.270721,450.039520 
	C469.822632,457.482849 475.612396,465.596100 481.776520,473.383270 
	C482.386810,474.154175 483.235046,474.736664 483.972839,475.406616 
	C484.351013,475.223114 484.729218,475.039612 485.107391,474.856140 
	C483.908600,468.913788 482.827606,462.944641 481.485168,457.034912 
	C479.074890,446.424530 479.091064,436.240326 486.301147,426.871765 
	C488.158569,424.756561 489.594879,422.682404 491.384552,420.979584 
	C494.035980,418.456848 496.938110,416.197540 500.083740,413.992920 
	C503.024658,413.530029 506.160950,413.603973 508.083954,412.113007 
	C511.336273,409.591461 514.551147,409.286560 517.084717,411.795319 
	C520.381958,415.060211 524.122742,415.052307 528.016357,415.450226 
	C522.433411,424.659515 516.494995,433.294250 511.531219,442.456940 
	C504.466583,455.497620 501.377930,469.545044 503.020813,484.880920 
	C506.326630,479.666504 508.561188,474.159119 512.464294,470.370880 
	C522.667542,460.467834 533.409424,451.089600 544.293579,441.926239 
	C556.348572,431.777100 569.228638,422.538269 578.121094,408.710510 
	C580.143250,405.604584 581.985535,402.786621 584.233887,399.968018 
	C590.394165,399.044983 595.616943,396.952667 600.240662,393.000366 
	C600.488647,393.005646 600.984375,393.017548 600.983154,393.394775 
	C600.656311,395.184204 600.330566,396.596375 599.669067,398.006958 
	C598.885559,398.005829 598.437927,398.006287 597.751221,398.079102 
	C597.673218,398.761749 597.834167,399.372009 598.000000,400.336060 
	C598.318359,401.782013 598.631775,402.874268 598.809448,404.298035 
	C596.626770,408.982849 594.624878,413.358124 592.516113,417.681244 
	C591.241821,420.293518 589.801758,422.824890 588.436218,425.392639 
	C588.436218,425.392639 588.256470,425.210541 588.019775,425.348328 
	C586.891113,426.702301 585.999023,427.918488 585.106934,429.134705 
	C585.106934,429.134674 585.048340,429.047638 584.782227,429.145081 
	C584.059753,429.894531 583.603516,430.546539 583.147217,431.198547 
	C583.147217,431.198547 583.130371,431.120087 582.851501,431.190979 
	C582.084961,431.896881 581.597229,432.531860 581.109497,433.166809 
	C581.109497,433.166809 581.078552,433.049866 580.919678,433.204102 
	C580.528564,433.639252 580.296387,433.920105 580.064209,434.200989 
	C580.064148,434.200958 580.059692,434.061951 579.906921,434.213898 
	C579.514404,434.631500 579.274658,434.897186 579.034851,435.162842 
	C579.034851,435.162842 579.038330,435.029694 578.887085,435.182312 
	C578.494019,435.588318 578.252136,435.841766 578.010254,436.095154 
	C578.010254,436.095154 578.032837,436.031281 577.722351,436.097565 
	C576.372498,437.244263 575.333130,438.324707 574.293701,439.405151 
	C574.293701,439.405121 574.273438,439.317627 573.989380,439.342285 
	C573.169983,439.960175 572.634644,440.553436 572.099243,441.146698 
	C572.099243,441.146698 572.071838,441.068176 571.838745,441.152618 
	C571.306396,441.663757 571.007080,442.090424 570.707825,442.517120 
	C570.707825,442.517120 570.672363,442.722870 570.339966,442.761536 
	C569.709473,442.933594 569.507690,443.154877 569.402405,443.464081 
	C569.402405,443.464081 569.345764,443.352051 569.085815,443.424744 
	C568.245667,444.061584 567.665588,444.625702 567.085449,445.189819 
	C567.085449,445.189819 567.092407,445.111816 566.848022,445.182831 
	C566.270996,445.684570 565.938293,446.115295 565.605591,446.546021 
	C565.605591,446.546021 565.578064,446.605621 565.287415,446.656494 
	C564.740295,446.936035 564.483826,447.164673 564.227417,447.393311 
	C564.227417,447.393341 564.242004,447.291931 563.929382,447.296448 
	C561.680847,449.034882 559.744873,450.768799 557.808899,452.502686 
	C557.808899,452.502686 557.730225,452.739746 557.267334,452.708191 
	C555.895508,453.487915 554.986633,454.299225 554.077820,455.110535 
	C554.077820,455.110535 554.033081,455.035522 553.789246,455.130310 
	C553.206299,455.664307 552.867188,456.103516 552.528076,456.542725 
	C552.528076,456.542725 552.498169,456.619415 552.105835,456.542847 
	C550.637268,457.482056 549.560913,458.497864 548.484619,459.513672 
	C548.484619,459.513672 548.225220,459.383698 548.042969,459.456635 
	C547.265442,460.085938 546.670105,460.642334 546.074829,461.198730 
	C537.273743,469.758759 528.282104,478.135040 519.765320,486.969208 
	C516.361694,490.499664 514.005310,495.039917 510.462585,500.142578 
	C532.966064,500.142578 554.469604,500.142578 576.069702,500.413727 
	C574.346741,500.799652 572.527344,501.011292 570.707581,501.014160 
	C553.059937,501.041992 535.412292,501.034821 517.764648,501.037567 
	C516.191956,501.037811 514.619202,501.037628 513.046509,501.037628 
	C513.737061,501.915070 514.388855,501.989777 515.040649,501.989807 
	C620.427063,501.994965 725.813538,501.998749 831.199951,501.957611 
	C832.806091,501.957001 834.412048,501.397705 836.018066,501.099121 
	C837.046814,503.458038 838.346313,505.742157 839.024963,508.197815 
	C839.651184,510.463776 839.611328,512.913879 839.778687,515.708252 
z"/>
<path fill="#61A3FA" opacity="1.000000" stroke="none" 
	d="
M530.077881,276.907074 
	C531.086426,279.278473 532.094971,281.649841 533.262573,284.603424 
	C533.703674,285.398346 533.985840,285.611084 534.267944,285.823822 
	C534.267944,285.823822 534.141541,285.894287 534.103027,286.201202 
	C532.462585,287.752899 530.835510,290.080322 529.263550,290.043640 
	C524.114075,289.923492 519.279297,290.408142 514.842102,293.095764 
	C514.860596,293.045258 514.967224,293.046356 514.801147,292.842163 
	C514.339844,292.449615 514.044617,292.261261 513.536499,291.942230 
	C512.921997,291.517151 512.520447,291.222687 511.990295,290.715515 
	C511.673309,290.203552 511.405396,290.020966 511.100281,289.947479 
	C511.142609,289.939911 511.163971,289.856628 511.135559,289.484985 
	C509.715118,285.060730 508.323120,281.008087 506.849030,276.700104 
	C506.550476,276.158722 506.334045,275.872711 506.160950,275.474487 
	C506.204285,275.362274 506.181793,275.122772 506.184570,274.653595 
	C506.318634,270.367645 506.126617,266.506897 506.638641,262.741913 
	C508.570435,248.537338 515.762634,236.783401 524.677734,226.025620 
	C531.784302,217.450104 539.763916,209.573029 546.558472,200.770325 
	C555.090210,189.716934 559.001587,176.959793 557.491211,162.825531 
	C556.120850,175.535873 552.223450,187.327454 543.292480,196.683121 
	C537.348755,202.909485 530.712036,208.551025 523.947266,213.900070 
	C512.047241,223.309601 500.061432,232.606766 490.782227,244.759430 
	C483.460266,254.348785 477.193878,264.536133 475.927399,277.396881 
	C475.550629,280.874023 475.228363,283.939117 474.676819,287.216797 
	C470.229004,288.852997 464.322937,287.994171 464.907959,295.915161 
	C464.305969,295.604126 463.703949,295.293121 463.101959,294.982086 
	C463.101959,287.976807 463.101959,280.971527 463.101959,273.966248 
	C464.728516,257.889374 471.944641,244.159409 483.129028,233.167053 
	C493.496307,222.977753 505.438202,214.376160 516.816956,205.237610 
	C521.345154,201.600906 526.283569,198.480118 530.931152,194.986069 
	C545.651917,183.918961 551.625122,168.680038 551.833069,150.738297 
	C551.850769,149.211639 551.835449,147.684586 551.835449,146.157715 
	C552.497009,145.902832 553.158569,145.647949 553.820129,145.393066 
	C556.232483,149.305740 558.644897,153.218414 561.078308,157.874710 
	C561.284668,159.423630 561.367737,160.269821 561.670959,161.027985 
	C565.036743,169.444351 567.303467,178.054871 566.047058,187.221069 
	C565.308228,192.611053 564.360901,197.972473 563.507324,203.346741 
	C563.507324,203.346741 563.297119,202.954727 563.157043,203.307480 
	C562.909790,204.207428 562.802612,204.754639 562.695435,205.301834 
	C562.695435,205.301834 562.763733,205.485611 562.380676,205.633423 
	C561.682434,206.513321 561.367249,207.245407 561.052124,207.977509 
	C561.052124,207.977524 561.075073,208.037827 560.761230,208.223450 
	C558.671265,211.300262 556.895264,214.191452 555.119202,217.082642 
	C555.119202,217.082642 555.015503,217.013336 554.795776,217.201294 
	C554.202637,218.072617 553.829224,218.755997 553.455811,219.439377 
	C553.455811,219.439377 553.431580,219.359116 553.201294,219.487762 
	C552.691406,220.120621 552.411865,220.624832 552.132324,221.129059 
	C552.132324,221.129059 552.050659,221.040726 551.826538,221.207642 
	C551.206482,222.063751 550.810425,222.752960 550.414429,223.442169 
	C550.414429,223.442169 550.400574,223.351517 550.245850,223.466583 
	C549.846191,223.796112 549.728760,224.065979 549.738831,224.391281 
	C549.738831,224.391281 549.736450,224.619736 549.359192,224.709641 
	C548.705872,225.244507 548.429810,225.689484 548.153687,226.134460 
	C548.153687,226.134445 548.024597,226.022217 547.892700,226.227859 
	C547.565735,226.720612 547.370667,227.007721 547.175598,227.294830 
	C547.175598,227.294846 547.189453,227.170578 546.926758,227.300858 
	C545.596802,229.118805 544.529419,230.806488 543.462036,232.494141 
	C543.462036,232.494141 543.442200,232.390610 543.220459,232.504395 
	C542.712463,233.107422 542.426208,233.596664 542.139954,234.085907 
	C542.139954,234.085922 542.084229,234.000000 541.905457,234.208237 
	C541.537842,234.697495 541.348999,234.978516 541.160217,235.259521 
	C541.160217,235.259537 541.172058,235.162537 540.893677,235.298889 
	C539.789001,236.986343 538.962769,238.537430 538.136536,240.088516 
	C538.136536,240.088516 538.097656,240.095047 537.807617,240.261444 
	C536.712769,241.988861 535.907898,243.549881 535.103027,245.110901 
	C535.103027,245.110901 535.066711,245.050537 534.887573,245.252777 
	C534.517395,246.007797 534.326355,246.560593 534.135315,247.113403 
	C534.135315,247.113403 534.002441,247.000610 533.755676,247.219025 
	C533.133728,248.715134 532.758484,249.992844 532.383301,251.270569 
	C532.383301,251.270569 532.154419,251.100250 531.956177,251.364212 
	C527.723511,259.823547 527.199890,268.252258 530.077881,276.907074 
z"/>
<path fill="#DC26AC" opacity="1.000000" stroke="none" 
	d="
M420.924835,393.061829 
	C420.468048,392.183807 420.011261,391.305756 419.338623,389.800964 
	C419.056061,388.142120 418.989319,387.110077 418.922577,386.078003 
	C418.718536,385.251343 418.514526,384.424683 418.177979,383.050842 
	C418.039185,382.333740 418.032959,382.163879 418.026703,381.993988 
	C418.024597,381.545105 418.022522,381.096191 418.005707,379.852356 
	C417.548431,366.918091 420.450348,355.425385 424.711975,344.191132 
	C427.512939,336.807465 430.284851,329.412781 433.069794,322.023041 
	C434.775940,320.030945 436.482086,318.038818 438.677673,316.100708 
	C439.292175,316.267670 439.417236,316.380585 439.542328,316.493530 
	C435.817139,326.702209 432.852325,337.033020 434.930664,348.074829 
	C435.388489,350.507202 436.155396,352.881409 436.758545,355.799438 
	C436.736176,356.581848 436.839691,356.813263 437.047699,357.010681 
	C437.047699,357.010681 437.219879,357.171387 437.189392,357.694275 
	C437.247192,360.334167 437.165039,362.475128 437.458527,364.563293 
	C438.112946,369.219452 438.044861,374.257050 439.904449,378.407440 
	C444.163391,387.912933 452.977020,390.948700 462.632080,391.984833 
	C466.396637,392.388824 470.184113,392.579193 474.073334,393.205261 
	C477.372955,395.357147 480.391510,398.235840 483.781219,398.773224 
	C492.082123,400.089172 500.554413,400.324158 508.790771,401.280518 
	C505.660400,405.653290 502.696930,409.739685 499.733490,413.826080 
	C496.938110,416.197540 494.035980,418.456848 491.384552,420.979584 
	C489.594879,422.682404 488.158569,424.756561 486.150421,426.527954 
	C485.193146,423.478394 483.497040,422.036987 480.553284,421.259094 
	C477.431488,420.434174 473.904907,419.460510 471.642212,417.373260 
	C464.178192,410.488129 456.389832,404.108337 446.875519,400.457123 
	C442.962158,398.955292 437.745483,400.372284 436.081696,394.713837 
	C436.058624,394.635437 435.774261,394.639893 435.615051,394.594513 
	C432.488739,393.703644 429.406525,392.533478 426.219086,392.032349 
	C424.549561,391.769836 422.695526,392.680817 420.924835,393.061829 
z"/>
<path fill="#F150BF" opacity="1.000000" stroke="none" 
	d="
M473.961151,392.866882 
	C470.184113,392.579193 466.396637,392.388824 462.632080,391.984833 
	C452.977020,390.948700 444.163391,387.912933 439.904449,378.407440 
	C438.044861,374.257050 438.112946,369.219452 437.458527,364.563293 
	C437.165039,362.475128 437.247192,360.334167 437.112061,357.783142 
	C438.667450,359.935760 440.269653,362.522430 442.110901,365.657166 
	C442.587982,366.458160 442.826019,366.711090 443.064056,366.964020 
	C443.064056,366.964020 443.001831,366.991882 443.103851,367.247528 
	C443.631592,367.871460 444.057312,368.239746 444.483063,368.608002 
	C444.483063,368.608002 444.390808,368.615509 444.458618,368.913940 
	C445.756226,370.054291 446.986084,370.896240 448.215912,371.738159 
	C448.215912,371.738159 447.993317,371.980499 448.228149,372.175690 
	C450.065704,373.139191 451.668457,373.907471 453.271210,374.675781 
	C453.271210,374.675781 453.197601,374.700226 453.391235,374.976440 
	C459.787079,378.654510 465.908081,378.398285 471.955811,374.844574 
	C471.955811,374.844574 471.925201,374.916016 472.233307,374.905029 
	C473.261200,374.436554 473.981018,373.979095 474.700836,373.521667 
	C474.700836,373.521667 474.853729,373.832397 475.136230,373.841370 
	C477.172150,374.010803 479.011871,373.885132 480.663391,374.383362 
	C486.493622,376.142212 492.259399,378.114777 497.872925,380.278351 
	C496.414703,382.015839 495.133148,383.481262 493.563660,385.121948 
	C488.177795,387.502655 483.079865,389.708099 477.754456,392.049072 
	C477.264130,392.420929 477.001282,392.657227 476.392883,392.862518 
	C475.351898,392.843292 474.656525,392.855103 473.961151,392.866882 
z"/>
<path fill="#7F97F5" opacity="1.000000" stroke="none" 
	d="
M514.823608,293.146301 
	C519.279297,290.408142 524.114075,289.923492 529.263550,290.043640 
	C530.835510,290.080322 532.462585,287.752899 534.148682,286.145111 
	C539.664368,291.394104 544.989624,297.114807 550.575500,302.568634 
	C553.074097,305.008209 556.095581,306.912201 558.825806,309.564148 
	C552.566589,311.389282 546.361389,312.709473 539.862915,313.882507 
	C538.435242,313.119812 537.300720,312.504303 535.927368,311.647278 
	C530.798401,307.934814 525.908203,304.463867 520.838745,300.714203 
	C518.714172,298.005737 516.768921,295.576019 514.823608,293.146301 
z"/>
<path fill="#7F97F5" opacity="1.000000" stroke="none" 
	d="
M462.990112,274.373474 
	C463.101959,280.971527 463.101959,287.976807 463.101959,294.982086 
	C463.703949,295.293121 464.305969,295.604126 464.907959,295.915161 
	C464.322937,287.994171 470.229004,288.852997 474.770599,287.592590 
	C475.729553,290.523560 476.365479,293.291229 477.061493,296.408264 
	C479.636780,300.876770 482.151978,304.995941 484.858154,309.402161 
	C486.730835,311.804596 488.412567,313.919983 489.767639,316.243439 
	C484.248810,317.327423 479.056610,318.203369 473.864441,319.079285 
	C473.864441,319.079285 473.963196,319.071625 473.835602,318.899841 
	C473.468689,318.488403 473.229401,318.248718 472.990112,318.009033 
	C472.990112,318.009033 473.000000,318.000000 472.933533,317.695679 
	C472.205414,316.651947 471.543793,315.912537 470.882141,315.173126 
	C461.664734,303.006775 460.937622,289.158081 462.990112,274.373474 
z"/>
<path fill="#EE58C1" opacity="1.000000" stroke="none" 
	d="
M432.813263,322.237976 
	C430.284851,329.412781 427.512939,336.807465 424.711975,344.191132 
	C420.450348,355.425385 417.548431,366.918091 417.984680,379.516296 
	C415.909149,375.759155 413.839844,371.543121 411.257141,366.281036 
	C407.174835,371.481842 406.596832,376.466217 406.069397,381.315887 
	C404.865112,392.388641 407.210480,402.998322 410.877747,413.771667 
	C403.810272,401.753906 402.508942,388.470520 405.448425,374.756256 
	C409.706055,354.891907 418.528290,337.299683 432.813263,322.237976 
z"/>
<path fill="#AF7AE3" opacity="1.000000" stroke="none" 
	d="
M473.982544,319.398895 
	C479.056610,318.203369 484.248810,317.327423 490.038086,316.410889 
	C492.363373,318.349182 494.091522,320.328094 495.980865,322.603088 
	C498.335968,326.699371 500.529846,330.499573 502.840210,334.636719 
	C503.353516,336.593323 503.750336,338.212982 503.995605,340.163086 
	C499.105682,343.655396 494.131226,345.514252 488.416718,343.288818 
	C483.644714,335.432037 478.872681,327.575287 473.982544,319.398895 
z"/>
<path fill="#AF7AE3" opacity="1.000000" stroke="none" 
	d="
M540.156189,314.029663 
	C546.361389,312.709473 552.566589,311.389282 559.074951,309.808105 
	C566.206055,315.785034 573.033936,322.022858 579.763672,328.877197 
	C575.078186,331.017792 570.490784,332.541870 565.628662,333.881775 
	C561.587463,330.816101 557.820923,327.934570 553.943542,324.814911 
	C553.558777,324.365540 553.284790,324.154358 553.032410,323.966370 
	C553.054016,323.989594 553.091370,323.937378 552.902344,323.659241 
	C548.527649,320.263947 544.341919,317.146820 540.156189,314.029663 
z"/>
<path fill="#EE58C1" opacity="1.000000" stroke="none" 
	d="
M599.992676,392.995117 
	C595.616943,396.952667 590.394165,399.044983 584.285767,399.571716 
	C584.945740,394.772430 585.960022,390.368744 587.073181,385.568542 
	C587.143311,380.121582 587.114441,375.071136 587.277100,369.726746 
	C590.467041,366.611542 593.465393,363.790253 597.156006,360.317596 
	C598.392639,363.942749 599.049194,365.962555 599.770630,367.958862 
	C600.739990,370.641052 601.759583,373.305115 602.757568,375.976959 
	C602.848877,377.044434 602.940186,378.111877 602.633301,379.619812 
	C601.708984,380.413788 600.755859,380.731598 600.722839,381.126343 
	C600.392700,385.075348 600.214050,389.037018 599.992676,392.995117 
z"/>
<path fill="#DF64B3" opacity="1.000000" stroke="none" 
	d="
M181.191833,532.312195 
	C181.126633,532.503418 181.061447,532.694702 180.890961,533.169250 
	C180.217697,532.454102 179.500015,531.511292 179.104889,530.448608 
	C174.939011,519.244080 177.156158,516.099487 188.980988,516.105164 
	C243.467453,516.131226 297.954102,516.186401 352.440125,516.032837 
	C357.641418,516.018188 360.136932,517.535522 360.467651,522.878357 
	C360.857788,529.180725 361.737335,535.452820 362.364136,542.087463 
	C361.654785,539.253967 360.986023,536.071045 360.158783,532.092041 
	C359.985992,530.298706 360.053162,529.292419 359.944763,528.305542 
	C358.822235,518.083801 358.656372,517.939514 348.522675,517.939880 
	C296.136627,517.941467 243.750565,517.944458 191.364502,517.946411 
	C177.021301,517.946960 176.707642,518.389038 181.191833,532.312195 
z"/>
<path fill="#DF56C8" opacity="1.000000" stroke="none" 
	d="
M498.049622,380.006287 
	C492.259399,378.114777 486.493622,376.142212 480.663391,374.383362 
	C479.011871,373.885132 477.172150,374.010803 475.042725,373.695648 
	C479.883942,370.513367 484.703369,367.075317 487.752747,360.886414 
	C488.357941,359.860565 488.486542,359.267670 488.615173,358.674805 
	C488.615204,358.674805 488.633728,358.774323 488.856628,358.629425 
	C490.089600,358.208893 491.401001,357.385864 492.059601,357.748474 
	C495.697296,359.751465 499.092834,362.257874 503.562134,359.736542 
	C504.012909,359.482208 505.208496,360.548218 506.063660,361.420563 
	C506.017395,363.239746 505.965942,364.639832 505.744934,366.346649 
	C503.066772,371.104340 500.558167,375.555328 498.049622,380.006287 
z"/>
<path fill="#FF64CA" opacity="1.000000" stroke="none" 
	d="
M835.913757,500.960876 
	C834.412048,501.397705 832.806091,501.957001 831.199951,501.957611 
	C725.813538,501.998749 620.427063,501.994965 515.040649,501.989807 
	C514.388855,501.989777 513.737061,501.915070 513.046509,501.037628 
	C514.619202,501.037628 516.191956,501.037811 517.764648,501.037567 
	C535.412292,501.034821 553.059937,501.041992 570.707581,501.014160 
	C572.527344,501.011292 574.346741,500.799652 576.522400,500.506409 
	C578.664062,500.274872 580.449646,500.221863 583.031006,500.422119 
	C601.565796,500.760498 619.304688,500.852020 637.043701,500.904236 
	C637.668091,500.906067 638.293579,500.516968 638.918579,500.310059 
	C639.409668,500.262054 639.900696,500.214050 641.111694,500.421204 
	C656.575562,500.795380 671.319336,500.946533 686.063477,500.999634 
	C688.345398,501.007843 690.628967,500.566956 692.911743,500.333740 
	C694.036804,500.282684 695.161926,500.231598 696.946533,500.409302 
	C698.709106,500.530945 699.812073,500.423798 700.915100,500.316620 
	C702.040283,500.266449 703.165466,500.216248 705.062195,500.423584 
	C714.862000,500.563416 723.890259,500.445679 732.918518,500.327942 
	C734.039795,500.278656 735.161011,500.229401 737.055664,500.433899 
	C757.566406,500.774170 777.303711,500.866302 797.041138,500.921173 
	C797.667114,500.922913 798.294128,500.541290 798.920654,500.338440 
	C799.415710,500.285950 799.910828,500.233429 801.127747,500.430542 
	C810.538513,500.559326 819.227478,500.438538 827.916382,500.317688 
	C829.363831,500.267456 830.811279,500.217224 832.953796,500.397217 
	C834.255615,500.671051 834.862366,500.714691 835.469116,500.758331 
	C835.469116,500.758331 835.809448,500.822601 835.913757,500.960876 
z"/>
<path fill="#DF56C8" opacity="1.000000" stroke="none" 
	d="
M602.791382,375.586761 
	C601.759583,373.305115 600.739990,370.641052 599.770630,367.958862 
	C599.049194,365.962555 598.392639,363.942749 597.156006,360.317596 
	C593.465393,363.790253 590.467041,366.611542 587.182007,369.370911 
	C586.014954,366.836304 585.134521,364.363617 584.174683,361.529877 
	C581.420349,356.133942 578.745544,351.099091 576.502930,346.059692 
	C581.708557,345.292084 586.481873,344.529053 591.255249,343.765991 
	C591.255249,343.765991 591.016663,343.884399 591.097839,344.030457 
	C591.464539,344.471954 591.750061,344.767365 592.035583,345.062775 
	C595.632141,355.107391 599.228699,365.151978 602.791382,375.586761 
z"/>
<path fill="#C760D3" opacity="1.000000" stroke="none" 
	d="
M506.058411,361.001495 
	C505.208496,360.548218 504.012909,359.482208 503.562134,359.736542 
	C499.092834,362.257874 495.697296,359.751465 492.059601,357.748474 
	C491.401001,357.385864 490.089600,358.208893 488.806091,358.631287 
	C488.557098,353.906891 488.581635,349.035767 488.511444,343.726746 
	C494.131226,345.514252 499.105682,343.655396 504.215942,340.458405 
	C505.402283,343.614929 506.216705,346.806549 507.021881,350.444397 
	C506.694550,354.260895 506.376495,357.631195 506.058411,361.001495 
z"/>
<path fill="#C760D3" opacity="1.000000" stroke="none" 
	d="
M591.194946,343.419006 
	C586.481873,344.529053 581.708557,345.292084 576.295715,345.786438 
	C572.803772,342.356750 569.951233,339.195679 566.962402,335.780762 
	C566.518494,335.039978 566.210938,334.552979 565.903381,334.065979 
	C570.490784,332.541870 575.078186,331.017792 579.892456,329.187073 
	C583.791077,333.610992 587.462830,338.341492 591.194946,343.419006 
z"/>
<path fill="#F651B7" opacity="1.000000" stroke="none" 
	d="
M475.722900,784.410889 
	C477.347900,783.472717 479.178314,781.965210 481.233582,781.537048 
	C505.851990,776.408813 530.612610,776.790710 555.406006,780.059937 
	C557.127014,780.286926 558.744934,781.295776 560.614746,782.254333 
	C532.434265,777.313416 504.146667,776.680969 475.722900,784.410889 
z"/>
<path fill="#FF64CA" opacity="1.000000" stroke="none" 
	d="
M472.722656,500.262329 
	C475.164398,500.703125 477.205688,501.069336 479.246979,501.435547 
	C479.234558,501.604462 479.222107,501.773407 479.209686,501.942322 
	C444.724670,501.942322 410.239685,501.942322 375.274139,501.893127 
	C375.162598,501.509430 375.531586,501.174927 376.665680,500.869019 
	C384.593475,500.706207 391.756165,500.514771 398.918854,500.323303 
	C399.411346,500.273773 399.903809,500.224274 401.117950,500.423279 
	C402.657410,500.787415 403.475128,501.003082 404.293091,501.004028 
	C424.873993,501.027252 445.454926,501.040283 466.035767,501.003021 
	C467.326263,501.000702 468.615967,500.573761 469.906036,500.344360 
	C470.711426,500.292175 471.516785,500.239929 472.722656,500.262329 
z"/>
<path fill="#F651B7" opacity="1.000000" stroke="none" 
	d="
M613.478516,829.875488 
	C614.654236,829.484131 616.279663,829.016052 617.905762,829.013977 
	C648.705078,828.974304 679.504395,828.984131 710.303772,829.013062 
	C711.617981,829.014282 712.931946,829.299133 714.608887,829.642700 
	C692.572571,829.934509 670.173401,830.064636 647.774109,830.124207 
	C636.492432,830.154175 625.210388,830.056030 613.478516,829.875488 
z"/>
<path fill="#F651B7" opacity="1.000000" stroke="none" 
	d="
M329.507629,829.838379 
	C330.517456,829.464661 331.975586,829.017456 333.433807,829.016968 
	C364.342224,829.006897 395.250641,829.047119 426.631989,829.098755 
	C426.073120,829.444275 425.041412,830.051453 424.009521,830.051758 
	C392.658356,830.062256 361.307159,830.012939 329.507629,829.838379 
z"/>
<path fill="#7F97F5" opacity="1.000000" stroke="none" 
	d="
M563.734741,203.073700 
	C564.360901,197.972473 565.308228,192.611053 566.047058,187.221069 
	C567.303467,178.054871 565.036743,169.444351 561.670959,161.027985 
	C561.367737,160.269821 561.284668,159.423630 561.099670,158.229553 
	C569.134827,172.376633 570.220093,187.354919 563.734741,203.073700 
z"/>
<path fill="#F951B8" opacity="1.000000" stroke="none" 
	d="
M372.963257,515.464355 
	C373.291718,515.238831 373.538666,515.475647 373.940948,515.920166 
	C374.068573,536.852783 374.054108,557.577698 373.994446,578.302490 
	C373.987823,580.607483 373.723724,582.911743 373.390808,585.577148 
	C373.095642,562.600891 372.988708,539.263794 372.963257,515.464355 
z"/>
<path fill="#F651B7" opacity="1.000000" stroke="none" 
	d="
M469.455383,500.250916 
	C468.615967,500.573761 467.326263,501.000702 466.035767,501.003021 
	C445.454926,501.040283 424.873993,501.027252 404.293091,501.004028 
	C403.475128,501.003082 402.657410,500.787415 401.484070,500.494934 
	C423.753906,500.264526 446.379303,500.210999 469.455383,500.250916 
z"/>
<path fill="#EE58C1" opacity="1.000000" stroke="none" 
	d="
M600.004883,398.008545 
	C600.330566,396.596375 600.656311,395.184204 601.190430,393.209534 
	C601.896423,392.100708 602.393860,391.554382 602.891357,391.008057 
	C602.197876,403.955048 596.823242,414.983673 588.699890,425.193237 
	C589.801758,422.824890 591.241821,420.293518 592.516113,417.681244 
	C594.624878,413.358124 596.626770,408.982849 598.899292,403.931976 
	C599.418213,401.492462 599.711548,399.750519 600.004883,398.008545 
z"/>
<path fill="#F651B7" opacity="1.000000" stroke="none" 
	d="
M798.468567,500.243896 
	C798.294128,500.541290 797.667114,500.922913 797.041138,500.921173 
	C777.303711,500.866302 757.566406,500.774170 737.470459,500.512604 
	C757.413391,500.274811 777.714966,500.212097 798.468567,500.243896 
z"/>
<path fill="#F651B7" opacity="1.000000" stroke="none" 
	d="
M638.466431,500.218262 
	C638.293579,500.516968 637.668091,500.906067 637.043701,500.904236 
	C619.304688,500.852020 601.565796,500.760498 583.469360,500.497681 
	C601.412659,500.255463 619.713440,500.190948 638.466431,500.218262 
z"/>
<path fill="#F651B7" opacity="1.000000" stroke="none" 
	d="
M692.460754,500.238831 
	C690.628967,500.566956 688.345398,501.007843 686.063477,500.999634 
	C671.319336,500.946533 656.575562,500.795380 641.475586,500.498016 
	C658.082947,500.261047 675.046326,500.202454 692.460754,500.238831 
z"/>
<path fill="#F651B7" opacity="1.000000" stroke="none" 
	d="
M325.583435,775.797241 
	C325.596039,789.612305 325.311157,803.705322 324.993896,817.797546 
	C324.945587,819.944397 324.747101,822.087891 324.443604,824.604492 
	C324.159241,810.079956 324.012909,795.183899 323.999084,780.287659 
	C323.997772,778.883789 324.830109,777.479126 325.583435,775.797241 
z"/>
<path fill="#7F97F5" opacity="1.000000" stroke="none" 
	d="
M530.103516,276.546631 
	C527.199890,268.252258 527.723511,259.823547 532.075256,251.452423 
	C531.638062,259.579834 530.883606,267.883026 530.103516,276.546631 
z"/>
<path fill="#F150BF" opacity="1.000000" stroke="none" 
	d="
M602.986084,390.557068 
	C602.393860,391.554382 601.896423,392.100708 601.191650,392.832275 
	C600.984375,393.017548 600.488647,393.005646 600.240662,393.000366 
	C600.214050,389.037018 600.392700,385.075348 600.722839,381.126343 
	C600.755859,380.731598 601.708984,380.413788 602.567505,380.018066 
	C602.960205,383.352600 603.020508,386.729340 602.986084,390.557068 
z"/>
<path fill="#F651B7" opacity="1.000000" stroke="none" 
	d="
M724.362671,825.256714 
	C724.170044,815.331543 724.296692,805.067078 724.584961,794.429810 
	C724.725037,804.343811 724.703491,814.630615 724.362671,825.256714 
z"/>
<path fill="#F651B7" opacity="1.000000" stroke="none" 
	d="
M732.466309,500.236145 
	C723.890259,500.445679 714.862000,500.563416 705.478638,500.501465 
	C714.087097,500.262665 723.050537,500.203522 732.466309,500.236145 
z"/>
<path fill="#F651B7" opacity="1.000000" stroke="none" 
	d="
M827.464722,500.224426 
	C819.227478,500.438538 810.538513,500.559326 801.495850,500.503113 
	C809.765686,500.261108 818.389343,500.196106 827.464722,500.224426 
z"/>
<path fill="#DF56C8" opacity="1.000000" stroke="none" 
	d="
M471.530182,374.859650 
	C465.908081,378.398285 459.787079,378.654510 453.386292,374.937927 
	C459.160004,374.707092 465.132263,374.790924 471.530182,374.859650 
z"/>
<path fill="#F651B7" opacity="1.000000" stroke="none" 
	d="
M398.466522,500.232544 
	C391.756165,500.514771 384.593475,500.706207 376.927063,500.831757 
	C383.620300,500.557861 390.817261,500.349823 398.466522,500.232544 
z"/>
<path fill="#7F97F5" opacity="1.000000" stroke="none" 
	d="
M555.405090,216.915680 
	C556.895264,214.191452 558.671265,211.300262 560.730957,208.234680 
	C559.240051,210.956436 557.465515,213.852570 555.405090,216.915680 
z"/>
<path fill="#EE58C1" opacity="1.000000" stroke="none" 
	d="
M558.075806,452.334503 
	C559.744873,450.768799 561.680847,449.034882 563.978760,447.310150 
	C562.341370,448.934998 560.342041,450.550659 558.075806,452.334503 
z"/>
<path fill="#EE58C1" opacity="1.000000" stroke="none" 
	d="
M443.065552,450.353394 
	C445.012970,451.887604 447.085968,453.726837 449.058685,455.806366 
	C447.035980,454.250580 445.113525,452.454529 443.065552,450.353394 
z"/>
<path fill="#EE58C1" opacity="1.000000" stroke="none" 
	d="
M414.625885,420.893372 
	C415.915161,422.227844 417.360992,423.846313 418.843750,425.818542 
	C417.514587,424.507324 416.148529,422.842346 414.625885,420.893372 
z"/>
<path fill="#EE58C1" opacity="1.000000" stroke="none" 
	d="
M410.863464,414.420227 
	C412.046265,415.961456 413.277039,417.844116 414.424011,420.078857 
	C413.197266,418.541199 412.054382,416.651459 410.863464,414.420227 
z"/>
<path fill="#7F97F5" opacity="1.000000" stroke="none" 
	d="
M538.404175,239.905106 
	C538.962769,238.537430 539.789001,236.986343 540.941528,235.308838 
	C540.402405,236.695511 539.537109,238.208603 538.404175,239.905106 
z"/>
<path fill="#7F97F5" opacity="1.000000" stroke="none" 
	d="
M543.710693,232.278198 
	C544.529419,230.806488 545.596802,229.118805 546.988281,227.312119 
	C546.194763,228.816147 545.077026,230.439194 543.710693,232.278198 
z"/>
<path fill="#7F97F5" opacity="1.000000" stroke="none" 
	d="
M535.377014,244.927917 
	C535.907898,243.549881 536.712769,241.988861 537.813354,240.280350 
	C537.289673,241.670212 536.470337,243.207565 535.377014,244.927917 
z"/>
<path fill="#DF56C8" opacity="1.000000" stroke="none" 
	d="
M453.052979,374.431000 
	C451.668457,373.907471 450.065704,373.139191 448.337402,372.051453 
	C449.752838,372.550110 451.293793,373.368164 453.052979,374.431000 
z"/>
<path fill="#EE58C1" opacity="1.000000" stroke="none" 
	d="
M548.758606,459.369293 
	C549.560913,458.497864 550.637268,457.482056 552.064697,456.541351 
	C551.288147,457.485931 550.160400,458.355438 548.758606,459.369293 
z"/>
<path fill="#EE58C1" opacity="1.000000" stroke="none" 
	d="
M431.803406,439.614990 
	C432.688019,440.066803 433.726501,440.789398 434.798157,441.866577 
	C433.873322,441.442719 432.915283,440.664246 431.803406,439.614990 
z"/>
<path fill="#EE58C1" opacity="1.000000" stroke="none" 
	d="
M423.668518,431.854431 
	C424.802612,432.673370 426.106934,433.752411 427.429443,435.176575 
	C426.244690,434.385986 425.041718,433.250244 423.668518,431.854431 
z"/>
<path fill="#EE58C1" opacity="1.000000" stroke="none" 
	d="
M418.927734,426.408691 
	C419.759125,426.972870 420.688873,427.831451 421.582581,429.044861 
	C420.706421,428.500824 419.866272,427.601959 418.927734,426.408691 
z"/>
<path fill="#DF56C8" opacity="1.000000" stroke="none" 
	d="
M448.045807,371.475830 
	C446.986084,370.896240 445.756226,370.054291 444.464386,368.868011 
	C445.560150,369.420258 446.717926,370.316895 448.045807,371.475830 
z"/>
<path fill="#EE58C1" opacity="1.000000" stroke="none" 
	d="
M585.400696,429.004028 
	C585.999023,427.918488 586.891113,426.702301 588.126221,425.419434 
	C587.544312,426.526306 586.619385,427.699860 585.400696,429.004028 
z"/>
<path fill="#EE58C1" opacity="1.000000" stroke="none" 
	d="
M554.369141,455.037109 
	C554.986633,454.299225 555.895508,453.487915 557.142944,452.719177 
	C556.541138,453.495728 555.600769,454.229675 554.369141,455.037109 
z"/>
<path fill="#EE58C1" opacity="1.000000" stroke="none" 
	d="
M574.591064,439.278625 
	C575.333130,438.324707 576.372498,437.244263 577.750671,436.116119 
	C577.022400,437.096313 575.955383,438.124207 574.591064,439.278625 
z"/>
<path fill="#7F97F5" opacity="1.000000" stroke="none" 
	d="
M532.604736,251.029831 
	C532.758484,249.992844 533.133728,248.715134 533.820557,247.276978 
	C533.696899,248.340729 533.261597,249.564911 532.604736,251.029831 
z"/>
<path fill="#EE58C1" opacity="1.000000" stroke="none" 
	d="
M439.719849,447.133545 
	C440.644897,447.730560 441.743805,448.560730 442.897156,449.726013 
	C441.932312,449.162964 440.912994,448.264832 439.719849,447.133545 
z"/>
<path fill="#EE58C1" opacity="1.000000" stroke="none" 
	d="
M572.387573,441.066589 
	C572.634644,440.553436 573.169983,439.960175 574.031738,439.357239 
	C573.797363,439.893860 573.236694,440.440155 572.387573,441.066589 
z"/>
<path fill="#F651B7" opacity="1.000000" stroke="none" 
	d="
M700.542175,500.225342 
	C699.812073,500.423798 698.709106,500.530945 697.364258,500.479553 
	C698.138062,500.258728 699.153687,500.196381 700.542175,500.225342 
z"/>
<path fill="#F651B7" opacity="1.000000" stroke="none" 
	d="
M427.495850,829.624023 
	C428.209351,829.114685 429.304535,828.593384 430.791321,828.083618 
	C430.081085,828.600708 428.979309,829.106384 427.495850,829.624023 
z"/>
<path fill="#EE58C1" opacity="1.000000" stroke="none" 
	d="
M581.399231,433.076050 
	C581.597229,432.531860 582.084961,431.896881 582.889465,431.203979 
	C582.700562,431.759125 582.194763,432.372223 581.399231,433.076050 
z"/>
<path fill="#AF7AE3" opacity="1.000000" stroke="none" 
	d="
M470.950928,315.465088 
	C471.543793,315.912537 472.205414,316.651947 472.928772,317.700500 
	C472.333588,317.258759 471.676636,316.507904 470.950928,315.465088 
z"/>
<path fill="#EE58C1" opacity="1.000000" stroke="none" 
	d="
M546.366699,461.116486 
	C546.670105,460.642334 547.265442,460.085938 548.181946,459.498322 
	C547.888245,459.989471 547.273438,460.511871 546.366699,461.116486 
z"/>
<path fill="#EE58C1" opacity="1.000000" stroke="none" 
	d="
M567.377686,445.106415 
	C567.665588,444.625702 568.245667,444.061584 569.141113,443.454346 
	C568.860962,443.948486 568.265442,444.485748 567.377686,445.106415 
z"/>
<path fill="#FF64CA" opacity="1.000000" stroke="none" 
	d="
M374.583191,501.911316 
	C374.480560,502.454498 374.103851,503.123383 373.436768,503.890747 
	C373.533936,503.338470 373.921539,502.687744 374.583191,501.911316 
z"/>
<path fill="#7F97F5" opacity="1.000000" stroke="none" 
	d="
M550.653809,223.262054 
	C550.810425,222.752960 551.206482,222.063751 551.880371,221.234528 
	C551.736572,221.757004 551.314880,222.419479 550.653809,223.262054 
z"/>
<path fill="#EE58C1" opacity="1.000000" stroke="none" 
	d="
M427.670715,435.810242 
	C428.165222,436.000214 428.822815,436.427582 429.541382,437.171875 
	C429.012848,437.008392 428.423340,436.528046 427.670715,435.810242 
z"/>
<path fill="#7F97F5" opacity="1.000000" stroke="none" 
	d="
M553.695557,219.264587 
	C553.829224,218.755997 554.202637,218.072617 554.842163,217.242950 
	C554.717346,217.761047 554.326294,218.425415 553.695557,219.264587 
z"/>
<path fill="#DF56C8" opacity="1.000000" stroke="none" 
	d="
M474.389099,373.605133 
	C473.981018,373.979095 473.261200,374.436554 472.198364,374.888031 
	C472.595978,374.484222 473.336639,374.086426 474.389099,373.605133 
z"/>
<path fill="#EE58C1" opacity="1.000000" stroke="none" 
	d="
M583.425964,431.088074 
	C583.603516,430.546539 584.059753,429.894531 584.827881,429.170929 
	C584.661316,429.725403 584.182983,430.351471 583.425964,431.088074 
z"/>
<path fill="#7F97F5" opacity="1.000000" stroke="none" 
	d="
M561.286377,207.807388 
	C561.367249,207.245407 561.682434,206.513321 562.295288,205.681564 
	C562.235535,206.267029 561.878052,206.952148 561.286377,207.807388 
z"/>
<path fill="#7F97F5" opacity="1.000000" stroke="none" 
	d="
M548.385498,226.027130 
	C548.429810,225.689484 548.705872,225.244507 549.249573,224.741791 
	C549.217285,225.095978 548.917297,225.507889 548.385498,226.027130 
z"/>
<path fill="#DF56C8" opacity="1.000000" stroke="none" 
	d="
M444.371338,368.344910 
	C444.057312,368.239746 443.631592,367.871460 443.125763,367.221375 
	C443.450317,367.320343 443.854980,367.701080 444.371338,368.344910 
z"/>
<path fill="#7F97F5" opacity="1.000000" stroke="none" 
	d="
M542.397217,233.966644 
	C542.426208,233.596664 542.712463,233.107422 543.273193,232.504700 
	C543.249939,232.876617 542.952209,233.362000 542.397217,233.966644 
z"/>
<path fill="#7F97F5" opacity="1.000000" stroke="none" 
	d="
M552.390869,220.999054 
	C552.411865,220.624832 552.691406,220.120621 553.243164,219.485184 
	C553.226685,219.858994 552.938110,220.364044 552.390869,220.999054 
z"/>
<path fill="#F651B7" opacity="1.000000" stroke="none" 
	d="
M835.228577,500.547302 
	C834.862366,500.714691 834.255615,500.671051 833.382507,500.474365 
	C833.740112,500.326324 834.364075,500.331329 835.228577,500.547302 
z"/>
<path fill="#C760D3" opacity="1.000000" stroke="none" 
	d="
M488.397736,358.891296 
	C488.486542,359.267670 488.357941,359.860565 488.008789,360.670654 
	C487.918976,360.294495 488.049652,359.701111 488.397736,358.891296 
z"/>
<path fill="#7F97F5" opacity="1.000000" stroke="none" 
	d="
M534.378052,246.935272 
	C534.326355,246.560593 534.517395,246.007797 534.921631,245.243713 
	C534.963501,245.607330 534.792175,246.182220 534.378052,246.935272 
z"/>
<path fill="#C760D3" opacity="1.000000" stroke="none" 
	d="
M592.008057,344.795898 
	C591.750061,344.767365 591.464539,344.471954 591.220764,343.981262 
	C591.501831,344.033661 591.741150,344.281342 592.008057,344.795898 
z"/>
<path fill="#7F97F5" opacity="1.000000" stroke="none" 
	d="
M562.839050,205.077087 
	C562.802612,204.754639 562.909790,204.207428 563.271484,203.500092 
	C563.344910,203.844086 563.163757,204.348221 562.839050,205.077087 
z"/>
<path fill="#EE58C1" opacity="1.000000" stroke="none" 
	d="
M552.766602,456.400208 
	C552.867188,456.103516 553.206299,455.664307 553.828491,455.149567 
	C553.742737,455.468567 553.373901,455.863129 552.766602,456.400208 
z"/>
<path fill="#EE58C1" opacity="1.000000" stroke="none" 
	d="
M570.926147,442.375183 
	C571.007080,442.090424 571.306396,441.663757 571.876587,441.169830 
	C571.813171,441.479462 571.478760,441.856354 570.926147,442.375183 
z"/>
<path fill="#EE58C1" opacity="1.000000" stroke="none" 
	d="
M437.940063,445.324768 
	C438.271240,445.388550 438.678467,445.685120 439.103394,446.247681 
	C438.752747,446.194946 438.384430,445.876251 437.940063,445.324768 
z"/>
<path fill="#EE58C1" opacity="1.000000" stroke="none" 
	d="
M565.843140,446.412781 
	C565.938293,446.115295 566.270996,445.684570 566.886719,445.188782 
	C566.806763,445.509003 566.443726,445.894287 565.843140,446.412781 
z"/>
<path fill="#EE58C1" opacity="1.000000" stroke="none" 
	d="
M578.283447,436.023193 
	C578.252136,435.841766 578.494019,435.588318 578.953735,435.184875 
	C578.966553,435.340332 578.761536,435.645752 578.283447,436.023193 
z"/>
<path fill="#EE58C1" opacity="1.000000" stroke="none" 
	d="
M434.852264,442.367126 
	C435.028839,442.330322 435.314453,442.562561 435.761597,443.021240 
	C435.602509,443.043854 435.281921,442.839996 434.852264,442.367126 
z"/>
<path fill="#7F97F5" opacity="1.000000" stroke="none" 
	d="
M547.431396,227.188797 
	C547.370667,227.007721 547.565735,226.720612 547.965027,226.273468 
	C548.008545,226.436554 547.847839,226.759659 547.431396,227.188797 
z"/>
<path fill="#EE58C1" opacity="1.000000" stroke="none" 
	d="
M430.672241,438.631653 
	C430.844055,438.578552 431.157715,438.771088 431.631287,439.194885 
	C431.465515,439.243195 431.139801,439.060272 430.672241,438.631653 
z"/>
<path fill="#7F97F5" opacity="1.000000" stroke="none" 
	d="
M549.908508,224.254639 
	C549.728760,224.065979 549.846191,223.796112 550.291626,223.468903 
	C550.433411,223.653183 550.295410,223.907135 549.908508,224.254639 
z"/>
<path fill="#EE58C1" opacity="1.000000" stroke="none" 
	d="
M429.650024,437.628174 
	C429.819214,437.592773 430.112793,437.802551 430.533691,438.257690 
	C430.365509,438.293152 430.069977,438.083221 429.650024,437.628174 
z"/>
<path fill="#7F97F5" opacity="1.000000" stroke="none" 
	d="
M541.409180,235.153915 
	C541.348999,234.978516 541.537842,234.697495 541.922974,234.254898 
	C541.965515,234.411652 541.811829,234.729980 541.409180,235.153915 
z"/>
<path fill="#EE58C1" opacity="1.000000" stroke="none" 
	d="
M579.306152,435.072754 
	C579.274658,434.897186 579.514404,434.631500 579.976440,434.213165 
	C579.991638,434.367859 579.784485,434.675232 579.306152,435.072754 
z"/>
<path fill="#F651B7" opacity="1.000000" stroke="none" 
	d="
M431.300598,828.072449 
	C431.311035,827.875977 431.668884,827.613403 432.306519,827.168213 
	C432.273529,827.325867 431.960754,827.666077 431.300598,828.072449 
z"/>
<path fill="#EE58C1" opacity="1.000000" stroke="none" 
	d="
M580.328369,434.088379 
	C580.296387,433.920105 580.528564,433.639252 580.978516,433.190186 
	C580.995056,433.339935 580.793762,433.657837 580.328369,434.088379 
z"/>
<path fill="#EE58C1" opacity="1.000000" stroke="none" 
	d="
M422.618713,430.700623 
	C422.851196,430.570251 423.110962,430.761200 423.368835,431.294006 
	C423.151672,431.387329 422.911346,431.182678 422.618713,430.700623 
z"/>
<path fill="#EE58C1" opacity="1.000000" stroke="none" 
	d="
M421.652588,429.618958 
	C421.820435,429.592651 422.090820,429.807129 422.459717,430.267761 
	C422.290527,430.295837 422.022827,430.077820 421.652588,429.618958 
z"/>
<path fill="#AF7AE3" opacity="1.000000" stroke="none" 
	d="
M473.055145,318.271423 
	C473.229401,318.248718 473.468689,318.488403 473.838074,318.949310 
	C473.685516,318.958282 473.402832,318.746063 473.055145,318.271423 
z"/>
<path fill="#EE58C1" opacity="1.000000" stroke="none" 
	d="
M569.614746,443.398346 
	C569.507690,443.154877 569.709473,442.933594 570.235596,442.760986 
	C570.307556,442.983734 570.095398,443.187378 569.614746,443.398346 
z"/>
<path fill="#EE58C1" opacity="1.000000" stroke="none" 
	d="
M435.873535,443.363098 
	C436.049164,443.321594 436.335388,443.546082 436.788086,443.989624 
	C436.631073,444.015472 436.307587,443.822266 435.873535,443.363098 
z"/>
<path fill="#DF56C8" opacity="1.000000" stroke="none" 
	d="
M442.994476,366.699005 
	C442.826019,366.711090 442.587982,366.458160 442.228668,365.974060 
	C442.379883,365.973267 442.652405,366.203613 442.994476,366.699005 
z"/>
<path fill="#EE58C1" opacity="1.000000" stroke="none" 
	d="
M436.901428,444.322906 
	C437.074524,444.282959 437.356812,444.508301 437.809204,444.946259 
	C437.656433,444.968658 437.333527,444.778412 436.901428,444.322906 
z"/>
<path fill="#F150BF" opacity="1.000000" stroke="none" 
	d="
M437.031311,356.759430 
	C436.839691,356.813263 436.736176,356.581848 436.764648,356.186523 
	C436.866425,356.207153 436.940704,356.357666 437.031311,356.759430 
z"/>
<path fill="#EE58C1" opacity="1.000000" stroke="none" 
	d="
M564.476929,447.326904 
	C564.483826,447.164673 564.740295,446.936035 565.254639,446.656738 
	C565.250427,446.824219 564.988464,447.042328 564.476929,447.326904 
z"/>
<path fill="#7F97F5" opacity="1.000000" stroke="none" 
	d="
M534.160156,285.566956 
	C533.985840,285.611084 533.703674,285.398346 533.265259,284.970734 
	C533.423462,284.940582 533.737915,285.125305 534.160156,285.566956 
z"/>
<path fill="#DC26AC" opacity="1.000000" stroke="none" 
	d="
M438.985840,315.978516 
	C439.114594,315.603973 439.424622,315.405640 439.734680,315.207336 
	C439.783630,315.481354 439.832581,315.755371 439.711914,316.261475 
	C439.417236,316.380585 439.292175,316.267670 438.985840,315.978516 
z"/>
<path fill="#F951B8" opacity="1.000000" stroke="none" 
	d="
M181.639526,532.240723 
	C176.707642,518.389038 177.021301,517.946960 191.364502,517.946411 
	C243.750565,517.944458 296.136627,517.941467 348.522675,517.939880 
	C358.656372,517.939514 358.822235,518.083801 359.944763,528.305542 
	C360.053162,529.292419 359.985992,530.298706 359.983337,531.747070 
	C315.995758,532.145386 272.025116,532.076965 228.054459,532.048157 
	C212.732086,532.038147 197.409637,532.126099 181.639526,532.240723 
z"/>
<path fill="#E026A7" opacity="1.000000" stroke="none" 
	d="
M577.941284,408.998474 
	C569.228638,422.538269 556.348572,431.777100 544.293579,441.926239 
	C533.409424,451.089600 522.667542,460.467834 512.464294,470.370880 
	C508.561188,474.159119 506.326630,479.666504 503.020813,484.880920 
	C501.377930,469.545044 504.466583,455.497620 511.531219,442.456940 
	C516.494995,433.294250 522.433411,424.659515 528.009033,415.424194 
	C528.081482,415.059387 528.037903,415.031921 528.248413,414.906036 
	C528.713135,414.568604 528.927307,414.322266 529.359985,413.845276 
	C531.028381,411.754852 532.438293,409.860291 534.271606,407.974884 
	C536.170166,408.178314 537.749390,408.098480 539.102966,408.612701 
	C546.240112,411.324219 553.205872,409.805634 560.238770,408.162018 
	C562.100952,407.726837 564.138184,407.859772 566.079346,407.981812 
	C570.039001,408.230743 573.987915,408.649628 577.941284,408.998474 
z"/>
<path fill="#E328A7" opacity="1.000000" stroke="none" 
	d="
M420.955322,393.378906 
	C422.695526,392.680817 424.549561,391.769836 426.219086,392.032349 
	C429.406525,392.533478 432.488739,393.703644 435.615051,394.594513 
	C435.774261,394.639893 436.058624,394.635437 436.081696,394.713837 
	C437.745483,400.372284 442.962158,398.955292 446.875519,400.457123 
	C456.389832,404.108337 464.178192,410.488129 471.642212,417.373260 
	C473.904907,419.460510 477.431488,420.434174 480.553284,421.259094 
	C483.497040,422.036987 485.193146,423.478394 485.887451,426.735107 
	C479.091064,436.240326 479.074890,446.424530 481.485168,457.034912 
	C482.827606,462.944641 483.908600,468.913788 485.107391,474.856140 
	C484.729218,475.039612 484.351013,475.223114 483.972839,475.406616 
	C483.235046,474.736664 482.386810,474.154175 481.776520,473.383270 
	C475.612396,465.596100 469.822632,457.482849 463.270721,450.039520 
	C453.949921,439.450684 443.659576,429.697449 434.611969,418.893402 
	C429.902527,413.269775 426.969513,406.158478 423.094788,399.052856 
	C422.617279,397.592773 422.279144,396.798981 421.940979,396.005219 
	C421.622589,395.235474 421.304199,394.465729 420.955322,393.378906 
z"/>
<path fill="#D825AE" opacity="1.000000" stroke="none" 
	d="
M578.121094,408.710510 
	C573.987915,408.649628 570.039001,408.230743 566.079346,407.981812 
	C564.138184,407.859772 562.100952,407.726837 560.238770,408.162018 
	C553.205872,409.805634 546.240112,411.324219 539.102966,408.612701 
	C537.749390,408.098480 536.170166,408.178314 534.439453,407.664551 
	C537.420410,400.894501 540.657043,394.443970 544.138306,387.725159 
	C545.763245,382.888611 549.096130,382.567657 553.101318,383.229126 
	C555.344604,383.599609 557.746521,383.861572 559.950500,383.466492 
	C568.314941,381.967102 576.627747,380.179596 584.956726,378.500488 
	C585.870544,381.881439 586.422363,383.923248 586.974243,385.965057 
	C585.960022,390.368744 584.945740,394.772430 583.879639,399.572388 
	C581.985535,402.786621 580.143250,405.604584 578.121094,408.710510 
z"/>
<path fill="#F150BF" opacity="1.000000" stroke="none" 
	d="
M543.893677,387.993439 
	C540.657043,394.443970 537.420410,400.894501 534.015991,407.655396 
	C532.438293,409.860291 531.028381,411.754852 529.155029,413.979767 
	C528.435852,414.516510 528.217957,414.757111 528.037903,415.031921 
	C528.037903,415.031921 528.081482,415.059387 528.088745,415.085388 
	C524.122742,415.052307 520.381958,415.060211 517.084717,411.795319 
	C514.551147,409.286560 511.336273,409.591461 508.083954,412.113007 
	C506.160950,413.603973 503.024658,413.530029 500.083740,413.992920 
	C502.696930,409.739685 505.660400,405.653290 508.991150,401.008850 
	C511.245850,397.666870 513.133240,394.882965 515.219727,391.946655 
	C515.622314,391.530914 515.825806,391.267639 516.224609,390.803101 
	C516.651123,390.096588 516.882324,389.591309 517.327820,388.834442 
	C518.664307,386.689545 519.786499,384.796234 521.179443,383.144287 
	C523.401672,384.130219 525.324280,385.402161 527.310547,385.510925 
	C531.598755,385.745789 535.935242,385.555939 540.217957,385.165558 
	C541.588623,385.040619 542.851929,383.738251 544.144897,383.392822 
	C544.048157,385.205170 543.970947,386.599304 543.893677,387.993439 
z"/>
<path fill="#F150BF" opacity="1.000000" stroke="none" 
	d="
M599.669067,398.006958 
	C599.711548,399.750519 599.418213,401.492462 599.035034,403.600464 
	C598.631775,402.874268 598.318359,401.782013 597.999390,400.006958 
	C597.992737,398.885010 597.991455,398.445892 597.990234,398.006744 
	C598.437927,398.006287 598.885559,398.005829 599.669067,398.006958 
z"/>
<path fill="#EE58C1" opacity="1.000000" stroke="none" 
	d="
M597.751221,398.079102 
	C597.991455,398.445892 597.992737,398.885010 597.994507,399.653229 
	C597.834167,399.372009 597.673218,398.761749 597.751221,398.079102 
z"/>
<path fill="#EE58C1" opacity="1.000000" stroke="none" 
	d="
M418.739075,386.328705 
	C418.989319,387.110077 419.056061,388.142120 419.158936,389.561615 
	C418.981903,388.825836 418.768707,387.702606 418.739075,386.328705 
z"/>
<path fill="#DC26AC" opacity="1.000000" stroke="none" 
	d="
M421.969299,396.334412 
	C422.279144,396.798981 422.617279,397.592773 422.969177,398.721069 
	C422.654510,398.258270 422.326050,397.460938 421.969299,396.334412 
z"/>
<path fill="#EE58C1" opacity="1.000000" stroke="none" 
	d="
M417.930389,382.108643 
	C418.032959,382.163879 418.039185,382.333740 418.042542,382.758850 
	C417.781006,382.790436 417.712494,382.526825 417.930389,382.108643 
z"/>
<path fill="#4062F1" opacity="1.000000" stroke="none" 
	d="
M475.981903,276.984863 
	C477.193878,264.536133 483.460266,254.348785 490.782227,244.759430 
	C500.061432,232.606766 512.047241,223.309601 523.947266,213.900070 
	C530.712036,208.551025 537.348755,202.909485 543.292480,196.683121 
	C552.223450,187.327454 556.120850,175.535873 557.491211,162.825531 
	C559.001587,176.959793 555.090210,189.716934 546.558472,200.770325 
	C539.763916,209.573029 531.784302,217.450104 524.677734,226.025620 
	C515.762634,236.783401 508.570435,248.537338 506.638641,262.741913 
	C506.126617,266.506897 506.318634,270.367645 505.946686,274.344757 
	C505.193237,272.833710 504.680481,271.162354 504.054230,269.121033 
	C495.679321,272.516388 487.524536,275.435822 479.080963,273.147522 
	C477.920746,274.584137 476.951324,275.784515 475.981903,276.984863 
z"/>
<path fill="#5055E9" opacity="1.000000" stroke="none" 
	d="
M475.927399,277.396881 
	C476.951324,275.784515 477.920746,274.584137 479.080963,273.147522 
	C487.524536,275.435822 495.679321,272.516388 504.054230,269.121033 
	C504.680481,271.162354 505.193237,272.833710 505.943909,274.813934 
	C506.181793,275.122772 506.204285,275.362274 506.254150,275.730835 
	C506.513031,276.384796 506.722076,276.670135 506.931152,276.955475 
	C508.323120,281.008087 509.715118,285.060730 510.773407,289.385712 
	C508.170807,289.878052 505.839050,289.837463 503.644867,290.367004 
	C497.157013,291.932770 490.748352,293.828278 484.255585,295.371185 
	C481.915222,295.927307 479.423859,295.848175 477.001404,296.058929 
	C476.365479,293.291229 475.729553,290.523560 474.999878,287.380066 
	C475.228363,283.939117 475.550629,280.874023 475.927399,277.396881 
z"/>
<path fill="#644ADF" opacity="1.000000" stroke="none" 
	d="
M477.061493,296.408264 
	C479.423859,295.848175 481.915222,295.927307 484.255585,295.371185 
	C490.748352,293.828278 497.157013,291.932770 503.644867,290.367004 
	C505.839050,289.837463 508.170807,289.878052 510.801819,289.757355 
	C511.163971,289.856628 511.142609,289.939911 511.247986,290.139954 
	C511.570221,290.585999 511.825409,290.782074 512.118958,290.928253 
	C512.520447,291.222687 512.921997,291.517151 513.696716,292.157806 
	C514.369019,292.684814 514.668152,292.865570 514.967224,293.046356 
	C514.967224,293.046356 514.860596,293.045258 514.842102,293.095764 
	C516.768921,295.576019 518.714172,298.005737 520.510498,300.874451 
	C508.896301,305.894440 496.836304,307.754486 484.667175,309.115143 
	C482.151978,304.995941 479.636780,300.876770 477.061493,296.408264 
z"/>
<path fill="#4062F1" opacity="1.000000" stroke="none" 
	d="
M506.849030,276.700104 
	C506.722076,276.670135 506.513031,276.384796 506.210815,275.843079 
	C506.334045,275.872711 506.550476,276.158722 506.849030,276.700104 
z"/>
<path fill="#5055E9" opacity="1.000000" stroke="none" 
	d="
M511.990295,290.715515 
	C511.825409,290.782074 511.570221,290.585999 511.205688,290.147522 
	C511.405396,290.020966 511.673309,290.203552 511.990295,290.715515 
z"/>
<path fill="#7F97F5" opacity="1.000000" stroke="none" 
	d="
M514.801147,292.842163 
	C514.668152,292.865570 514.369019,292.684814 513.909668,292.288452 
	C514.044617,292.261261 514.339844,292.449615 514.801147,292.842163 
z"/>
<path fill="#D825AE" opacity="1.000000" stroke="none" 
	d="
M517.113525,389.086029 
	C516.882324,389.591309 516.651123,390.096588 516.029663,390.959381 
	C515.433167,391.577606 515.226929,391.838318 515.020691,392.099060 
	C513.133240,394.882965 511.245850,397.666870 509.158081,400.722473 
	C500.554413,400.324158 492.082123,400.089172 483.781219,398.773224 
	C480.391510,398.235840 477.372955,395.357147 474.073334,393.205261 
	C474.656525,392.855103 475.351898,392.843292 476.636780,392.746155 
	C477.478180,392.411713 477.730072,392.162628 477.981934,391.913544 
	C483.079865,389.708099 488.177795,387.502655 493.943848,385.168365 
	C499.860901,385.541656 505.364075,387.228363 510.278778,386.173431 
	C514.254700,385.320007 515.593933,386.292755 517.113525,389.086029 
z"/>
<path fill="#CA28B3" opacity="1.000000" stroke="none" 
	d="
M517.327820,388.834442 
	C515.593933,386.292755 514.254700,385.320007 510.278778,386.173431 
	C505.364075,387.228363 499.860901,385.541656 494.231781,384.993103 
	C495.133148,383.481262 496.414703,382.015839 497.872925,380.278320 
	C500.558167,375.555328 503.066772,371.104340 506.134888,366.262726 
	C511.947540,365.824066 517.205322,365.650543 522.449463,365.844879 
	C523.382263,365.879456 524.258484,367.442017 525.141602,368.683380 
	C523.717712,373.679443 522.313171,378.291199 520.908630,382.902924 
	C519.786499,384.796234 518.664307,386.689545 517.327820,388.834442 
z"/>
<path fill="#DC26AC" opacity="1.000000" stroke="none" 
	d="
M477.754456,392.049072 
	C477.730072,392.162628 477.478180,392.411713 476.982361,392.777161 
	C477.001282,392.657227 477.264130,392.420929 477.754456,392.049072 
z"/>
<path fill="#8B3ACC" opacity="1.000000" stroke="none" 
	d="
M539.862915,313.882507 
	C544.341919,317.146820 548.527649,320.263947 552.488647,323.704834 
	C545.267456,325.362946 538.250305,326.598694 531.279480,328.055664 
	C521.742493,330.048950 512.240662,332.210419 502.723724,334.299805 
	C500.529846,330.499573 498.335968,326.699371 496.247314,322.425720 
	C509.623810,318.597809 522.895020,315.243286 536.166260,311.888794 
	C537.300720,312.504303 538.435242,313.119812 539.862915,313.882507 
z"/>
<path fill="#7741D4" opacity="1.000000" stroke="none" 
	d="
M535.927368,311.647247 
	C522.895020,315.243286 509.623810,318.597809 496.086121,322.129639 
	C494.091522,320.328094 492.363373,318.349182 490.364746,316.202820 
	C488.412567,313.919983 486.730835,311.804596 484.858154,309.402161 
	C496.836304,307.754486 508.896301,305.894440 520.689819,301.153198 
	C525.908203,304.463867 530.798401,307.934814 535.927368,311.647247 
z"/>
<path fill="#9F34C4" opacity="1.000000" stroke="none" 
	d="
M502.840210,334.636719 
	C512.240662,332.210419 521.742493,330.048950 531.279480,328.055664 
	C538.250305,326.598694 545.267456,325.362946 552.677612,323.982971 
	C553.091370,323.937378 553.054016,323.989594 553.181274,324.173706 
	C553.557129,324.589600 553.805725,324.821350 554.054382,325.053070 
	C557.820923,327.934570 561.587463,330.816101 565.628662,333.881775 
	C566.210938,334.552979 566.518494,335.039978 566.570190,335.796082 
	C559.831543,336.394501 553.345825,336.676605 546.868103,337.086212 
	C545.244934,337.188843 543.631104,337.635956 542.041504,338.037781 
	C536.922058,339.331818 531.868774,340.960144 526.690918,341.932037 
	C520.557617,343.083282 514.321289,343.686096 508.386627,344.491730 
	C507.882141,346.541168 507.456635,348.269684 507.031128,349.998169 
	C506.216705,346.806549 505.402283,343.614929 504.367523,340.127991 
	C503.750336,338.212982 503.353516,336.593323 502.840210,334.636719 
z"/>
<path fill="#8B3ACC" opacity="1.000000" stroke="none" 
	d="
M553.943542,324.814911 
	C553.805725,324.821350 553.557129,324.589600 553.159668,324.150513 
	C553.284790,324.154358 553.558777,324.365540 553.943542,324.814911 
z"/>
<path fill="#CA28B3" opacity="1.000000" stroke="none" 
	d="
M544.138306,387.725159 
	C543.970947,386.599304 544.048157,385.205170 544.342529,383.079712 
	C545.039917,377.562347 545.520325,372.776306 546.408508,367.989563 
	C559.295593,365.956268 571.774841,363.923584 584.254089,361.890930 
	C585.134521,364.363617 586.014954,366.836304 586.990479,369.664825 
	C587.114441,375.071136 587.143311,380.121582 587.073181,385.568542 
	C586.422363,383.923248 585.870544,381.881439 584.956726,378.500488 
	C576.627747,380.179596 568.314941,381.967102 559.950500,383.466492 
	C557.746521,383.861572 555.344604,383.599609 553.101318,383.229126 
	C549.096130,382.567657 545.763245,382.888611 544.138306,387.725159 
z"/>
<path fill="#B82BBB" opacity="1.000000" stroke="none" 
	d="
M584.174683,361.529877 
	C571.774841,363.923584 559.295593,365.956268 546.374023,367.659668 
	C545.647888,366.509521 545.364014,365.688599 545.054199,364.482239 
	C544.190002,356.938934 540.826843,351.146057 535.139404,346.852417 
	C533.735657,345.792694 531.500977,345.288910 529.756165,345.485748 
	C529.027954,345.567932 528.258728,348.105194 528.064026,349.598633 
	C527.314392,355.349548 526.789490,361.129761 526.028809,367.144379 
	C525.638184,367.692810 525.399536,367.995911 525.160889,368.299011 
	C524.258484,367.442017 523.382263,365.879456 522.449463,365.844879 
	C517.205322,365.650543 511.947540,365.824066 506.304443,365.956024 
	C505.965942,364.639832 506.017395,363.239746 506.063629,361.420563 
	C506.376495,357.631195 506.694550,354.260895 507.021912,350.444397 
	C507.456635,348.269684 507.882141,346.541168 508.386627,344.491730 
	C514.321289,343.686096 520.557617,343.083282 526.690918,341.932037 
	C531.868774,340.960144 536.922058,339.331818 542.041504,338.037781 
	C543.631104,337.635956 545.244934,337.188843 546.868103,337.086212 
	C553.345825,336.676605 559.831543,336.394501 566.706543,336.049927 
	C569.951233,339.195679 572.803772,342.356750 575.863464,345.791016 
	C578.745544,351.099091 581.420349,356.133942 584.174683,361.529877 
z"/>
<path fill="#F651B7" opacity="1.000000" stroke="none" 
	d="
M528.248413,414.906036 
	C528.217957,414.757111 528.435852,414.516510 528.896484,414.175629 
	C528.927307,414.322266 528.713135,414.568604 528.248413,414.906036 
z"/>
<path fill="#DF56C8" opacity="1.000000" stroke="none" 
	d="
M545.080078,364.867676 
	C545.364014,365.688599 545.647888,366.509521 545.966187,367.660339 
	C545.520325,372.776306 545.039917,377.562347 544.361938,382.661499 
	C542.851929,383.738251 541.588623,385.040619 540.217957,385.165558 
	C535.935242,385.555939 531.598755,385.745789 527.310547,385.510925 
	C525.324280,385.402161 523.401672,384.130219 521.179443,383.144287 
	C522.313171,378.291199 523.717712,373.679443 525.141602,368.683350 
	C525.399536,367.995911 525.638184,367.692810 526.404724,367.076447 
	C532.981750,366.131348 539.030945,365.499512 545.080078,364.867676 
z"/>
<path fill="#CA28B3" opacity="1.000000" stroke="none" 
	d="
M515.219727,391.946655 
	C515.226929,391.838318 515.433167,391.577606 515.834351,391.160614 
	C515.825806,391.267639 515.622314,391.530914 515.219727,391.946655 
z"/>
<path fill="#C760D3" opacity="1.000000" stroke="none" 
	d="
M545.054199,364.482208 
	C539.030945,365.499512 532.981750,366.131348 526.556702,366.831116 
	C526.789490,361.129761 527.314392,355.349548 528.064026,349.598633 
	C528.258728,348.105194 529.027954,345.567932 529.756165,345.485748 
	C531.500977,345.288910 533.735657,345.792694 535.139404,346.852417 
	C540.826843,351.146057 544.190002,356.938934 545.054199,364.482208 
z"/>
</svg>